<svg width="503" height="324" viewBox="0 0 503 324" fill="none" xmlns="http://www.w3.org/2000/svg">
<g clip-path="url(#clip0_16164_1251)">
<rect y="0.522705" width="503" height="323.261" rx="21.4613" fill="white"/>
<rect y="0.522705" width="68.408" height="323.261" fill="#A9D4F1" fill-opacity="0.5"/>
<g clip-path="url(#clip1_16164_1251)">
<path d="M49.2613 36.5857V19.2531L38.6866 29.8376C38.4112 30.1129 38.0843 30.3314 37.7245 30.4804C37.3647 30.6295 36.9791 30.7062 36.5896 30.7062C36.2002 30.7062 35.8146 30.6295 35.4548 30.4804C35.095 30.3314 34.7681 30.1129 34.4927 29.8376L32.3447 27.6895C32.0695 27.4142 31.7428 27.1958 31.3832 27.0468C31.0236 26.8978 30.6382 26.8211 30.249 26.8211C29.8597 26.8211 29.4743 26.8978 29.1147 27.0468C28.7551 27.1958 28.4284 27.4142 28.1532 27.6895L15.0729 40.7626H45.0844C46.1922 40.7626 47.2546 40.3225 48.0379 39.5392C48.8212 38.7559 49.2613 37.6935 49.2613 36.5857Z" fill="url(#paint0_linear_16164_1251)"/>
<path d="M36.6528 37.4202L52.9734 21.0996L50.1054 18.4091L33.8748 34.6397L36.6528 37.4202Z" fill="url(#paint1_linear_16164_1251)"/>
<path d="M49.3367 16.6187H53.9855C54.1687 16.6187 54.3445 16.6914 54.474 16.821C54.6036 16.9506 54.6764 17.1263 54.6764 17.3095V21.9583C54.6761 22.0949 54.6353 22.2283 54.5592 22.3417C54.4831 22.4551 54.3751 22.5434 54.2489 22.5955C54.1226 22.6475 53.9838 22.661 53.8499 22.6342C53.716 22.6074 53.593 22.5415 53.4965 22.4448L48.8478 17.7985C48.751 17.7019 48.685 17.5787 48.6583 17.4445C48.6316 17.3104 48.6452 17.1714 48.6976 17.045C48.75 16.9187 48.8386 16.8107 48.9524 16.7348C49.0662 16.6589 49.1999 16.6185 49.3367 16.6187Z" fill="url(#paint2_linear_16164_1251)"/>
<path style="mix-blend-mode:multiply" d="M49.2613 36.5859V24.7973L33.2982 40.7628H45.0844C46.1922 40.7628 47.2546 40.3227 48.0379 39.5394C48.8212 38.7561 49.2613 37.6937 49.2613 36.5859Z" fill="url(#paint3_linear_16164_1251)"/>
<path style="mix-blend-mode:multiply" d="M32.3374 27.6895C32.0622 27.4142 31.7355 27.1958 31.3759 27.0467C31.0163 26.8977 30.6309 26.821 30.2417 26.821C29.8524 26.821 29.467 26.8977 29.1074 27.0467C28.7478 27.1958 28.4211 27.4142 28.1459 27.6895L15.0729 40.7625H23.5604L34.4854 29.8375L32.3374 27.6895Z" fill="url(#paint4_linear_16164_1251)"/>
</g>
<rect x="8.048" y="55.5173" width="52.312" height="12.072" rx="6.036" fill="#0D89D3"/>
<rect x="13.4133" y="59.5414" width="41.5813" height="4.024" fill="white"/>
<rect x="13.4133" y="85.0267" width="41.5813" height="2.68267" fill="#A3C0D3"/>
<rect x="13.4133" y="105.147" width="41.5813" height="2.68267" fill="#A3C0D3"/>
<rect x="13.4133" y="125.267" width="41.5813" height="2.68267" fill="#A3C0D3"/>
<rect x="13.4133" y="145.387" width="41.5813" height="2.68267" fill="#A3C0D3"/>
<g clip-path="url(#clip2_16164_1251)">
<path d="M270.373 36.8143H93.523V36.8734H270.373V36.8143Z" fill="#EAEAEB"/>
<path d="M270.373 48.3249H93.523V48.3839H270.373V48.3249Z" fill="#EAEAEB"/>
<path d="M270.373 59.8355H93.523V59.8946H270.373V59.8355Z" fill="#EAEAEB"/>
<path d="M270.373 71.3461H93.523V71.4051H270.373V71.3461Z" fill="#EAEAEB"/>
<path d="M270.373 82.8567H93.523V82.9157H270.373V82.8567Z" fill="#EAEAEB"/>
<path d="M270.373 94.3672H93.523V94.4263H270.373V94.3672Z" fill="#EAEAEB"/>
<path d="M270.373 105.878H93.523V105.937H270.373V105.878Z" fill="#EAEAEB"/>
<path d="M270.373 117.388H93.523V117.447H270.373V117.388Z" fill="#EAEAEB"/>
<path d="M270.373 128.899H93.523V128.958H270.373V128.899Z" fill="#EAEAEB"/>
<path d="M270.373 31H93.523V31.1772H270.373V31Z" fill="#EAEAEB"/>
<path d="M270.373 42.5106H93.523V42.6877H270.373V42.5106Z" fill="#EAEAEB"/>
<path d="M270.373 54.0212H93.523V54.1983H270.373V54.0212Z" fill="#EAEAEB"/>
<path d="M270.373 65.5317H93.523V65.7089H270.373V65.5317Z" fill="#EAEAEB"/>
<path d="M270.373 77.0424H93.523V77.2195H270.373V77.0424Z" fill="#EAEAEB"/>
<path d="M270.373 88.5529H93.523V88.7301H270.373V88.5529Z" fill="#EAEAEB"/>
<path d="M270.373 100.063H93.523V100.241H270.373V100.063Z" fill="#EAEAEB"/>
<path d="M270.373 111.574H93.523V111.751H270.373V111.574Z" fill="#EAEAEB"/>
<path d="M270.373 123.085H93.523V123.262H270.373V123.085Z" fill="#EAEAEB"/>
<path d="M270.373 134.595H93.523V134.772H270.373V134.595Z" fill="#EAEAEB"/>
<path d="M89.981 133.062C89.981 134.38 89.6267 134.739 89.0456 134.739C88.4645 134.739 88.1102 134.385 88.1102 133.062C88.1102 131.739 88.4645 131.386 89.0456 131.386C89.6267 131.386 89.981 131.744 89.981 133.062ZM88.7007 132.897V133.228C88.7007 133.936 88.7574 134.262 89.0456 134.262C89.3338 134.262 89.3905 133.936 89.3905 133.228V132.897C89.3905 132.188 89.3338 131.862 89.0456 131.862C88.7574 131.862 88.7007 132.188 88.7007 132.897Z" fill="#6C6B71"/>
<path d="M88.3747 111.184H89.0409V111.657H87.0803V111.184H87.8102V109.166H87.0779V108.788C87.4383 108.733 87.7848 108.61 88.0984 108.424H88.3771L88.3747 111.184Z" fill="#6C6B71"/>
<path d="M89.8676 110.164L90.562 109.178H91.1667L90.4298 110.187L91.2045 111.661H90.5762L90.0754 110.632L89.8676 110.887V111.661H89.3007V108.247H89.8676V110.164Z" fill="#6C6B71"/>
<path d="M88.8471 86.2321C88.8553 86.381 88.8198 86.529 88.7452 86.658C88.6705 86.787 88.5598 86.8914 88.4267 86.9585V86.9774C88.7007 87.0813 88.8991 87.3412 88.8991 87.7711C88.8991 88.3474 88.5117 88.697 87.9637 88.697C87.3448 88.697 87.0047 88.3143 87.0047 87.7238V87.6388H87.5952V87.738C87.5952 88.0451 87.7133 88.2199 87.9495 88.2199C88.1621 88.2199 88.3039 88.0687 88.3039 87.7474C88.3039 87.3412 88.1196 87.2372 87.9165 87.2372H87.7606V86.7648H87.9259C88.1054 86.7648 88.2472 86.6006 88.2472 86.2652C88.2472 85.9629 88.1291 85.8306 87.9495 85.8306C87.77 85.8306 87.6472 85.9818 87.6472 86.2841V86.3739H87.0567V86.2416C87.0502 86.1233 87.0687 86.0049 87.1111 85.8942C87.1534 85.7835 87.2186 85.683 87.3024 85.5992C87.3862 85.5154 87.4867 85.4502 87.5974 85.4078C87.7081 85.3655 87.8265 85.347 87.9448 85.3534C88.4881 85.344 88.8471 85.6558 88.8471 86.2321Z" fill="#6C6B71"/>
<path d="M89.8676 87.1427L90.562 86.1565H91.1667L90.4298 87.1663L91.2045 88.6403H90.5762L90.0754 87.6104L89.8676 87.8655V88.6403H89.3007V85.2258H89.8676V87.1427Z" fill="#6C6B71"/>
<path d="M88.7999 62.9086H87.737L87.6897 63.6739C87.82 63.567 87.9842 63.5101 88.1527 63.5133C88.592 63.5133 88.9416 63.8487 88.9416 64.5621C88.9416 65.2754 88.5779 65.6758 87.9968 65.6758C87.4157 65.6758 87.0425 65.2742 87.0425 64.6129H87.633C87.633 64.9672 87.7653 65.2034 87.9968 65.2034C88.2283 65.2034 88.3606 64.9861 88.3606 64.5621C88.3606 64.1841 88.2188 63.9715 88.0299 63.9715C87.8409 63.9715 87.7511 64.0896 87.6755 64.2455L87.1275 64.17L87.2362 62.3748H88.8046L88.7999 62.9086Z" fill="#6C6B71"/>
<path d="M89.8676 64.1227L90.562 63.1354H91.1667L90.4298 64.1464L91.2045 65.6191H90.5762L90.0754 64.5893L89.8676 64.8444V65.6191H89.3007V62.2047H89.8676V64.1227Z" fill="#6C6B71"/>
<path d="M88.9369 39.741C88.5117 40.3835 87.9826 41.3661 87.9826 42.357C87.9826 42.4468 87.9826 42.4846 87.9826 42.5933H87.3543C87.3543 41.5551 87.8267 40.5394 88.318 39.8768H86.9953V39.3477H88.9322L88.9369 39.741Z" fill="#6C6B71"/>
<path d="M89.8676 41.1016L90.562 40.1142H91.1667L90.4298 41.1252L91.2045 42.598H90.5762L90.0754 41.5693L89.8676 41.8232V42.598H89.3007V39.1835H89.8676V41.1016Z" fill="#6C6B71"/>
<path d="M116.448 88.6415H111.488V134.684H116.448V88.6415Z" fill="#A1CDD3"/>
<path d="M116.448 71.3756H111.488V88.6415H116.448V71.3756Z" fill="#79BBDE"/>
<path d="M131.717 100.257H126.757V134.683H131.717V100.257Z" fill="#D3D4D6"/>
<path d="M131.717 87.3482H126.757V100.258H131.717V87.3482Z" fill="#CECBD6"/>
<path d="M146.987 77.1309H142.027V134.684H146.987V77.1309Z" fill="#A1CDD3"/>
<path d="M146.987 48.306H142.027V77.1309H146.987V48.306Z" fill="#79BBDE"/>
<path d="M169.596 100.152H164.636V134.684H169.596V100.152Z" fill="#6FCDFF"/>
<path d="M169.596 82.8862H164.636V100.152H169.596V82.8862Z" fill="#0288BB"/>
<path d="M184.865 77.1309H179.904V134.684H184.865V77.1309Z" fill="#A1CDD3"/>
<path d="M184.865 59.8651H179.904V77.1309H184.865V59.8651Z" fill="#79BBDE"/>
<path d="M200.135 97.7415H195.174V134.684H200.135V97.7415Z" fill="#6FCDFF"/>
<path d="M200.135 71.3756H195.174V97.7415H200.135V71.3756Z" fill="#0288BB"/>
<path d="M222.744 59.8651H217.783V134.684H222.744V59.8651Z" fill="#FFB4A9"/>
<path d="M222.744 36.8439H217.783V59.865H222.744V36.8439Z" fill="#FF7667"/>
<path d="M238.012 88.6415H233.052V134.684H238.012V88.6415Z" fill="#A1CDD3"/>
<path d="M238.012 77.1309H233.052V88.6415H238.012V77.1309Z" fill="#79BBDE"/>
<path d="M253.282 100.152H248.322V134.684H253.282V100.152Z" fill="#6FCDFF"/>
<path d="M253.282 65.6203H248.322V100.152H253.282V65.6203Z" fill="#0288BB"/>
<path d="M121.084 144.057V145.313H120.479V142.073H121.637C122.308 142.073 122.653 142.484 122.653 143.046C122.653 143.655 122.246 144.057 121.637 144.057H121.084ZM121.084 142.611V143.523H121.575C121.868 143.523 122.029 143.343 122.029 143.05C122.029 142.786 121.864 142.616 121.575 142.616L121.084 142.611Z" fill="#6C6B71"/>
<path d="M123.064 145.313V142.073H125.132V142.611H123.668V143.386H124.92V143.924H123.668V144.775H125.156V145.313H123.064Z" fill="#6C6B71"/>
<path d="M126.252 143.962V145.313H125.648V142.073H127.004C127.66 142.073 127.996 142.465 127.996 142.998C128.001 143.175 127.952 143.35 127.855 143.498C127.757 143.646 127.617 143.76 127.452 143.825L128.075 145.309H127.419L126.881 143.957L126.252 143.962ZM126.252 142.611V143.428H126.919C127.211 143.428 127.344 143.268 127.344 142.998C127.344 142.762 127.226 142.611 126.942 142.611H126.252Z" fill="#6C6B71"/>
<path d="M129.002 145.313H128.397V142.073H129.002V145.313Z" fill="#6C6B71"/>
<path d="M132.09 143.693C132.09 144.836 131.581 145.37 130.745 145.37C129.909 145.37 129.399 144.836 129.399 143.693C129.399 142.55 129.909 142.016 130.745 142.016C131.581 142.016 132.09 142.55 132.09 143.693ZM130.022 143.575V143.811C130.022 144.458 130.259 144.85 130.745 144.85C131.232 144.85 131.468 144.458 131.468 143.811V143.575C131.468 142.928 131.232 142.535 130.745 142.535C130.259 142.535 130.022 142.928 130.022 143.575Z" fill="#6C6B71"/>
<path d="M132.536 145.313V142.073H133.589C134.397 142.073 134.888 142.602 134.888 143.646C134.888 144.756 134.398 145.313 133.589 145.313H132.536ZM133.14 142.611V144.775H133.532C133.981 144.775 134.265 144.439 134.265 143.764V143.528C134.265 142.918 133.981 142.611 133.532 142.611H133.14Z" fill="#6C6B71"/>
<path d="M137.609 144.834H138.274V145.306H136.315V144.834H137.043V142.814H136.31V142.436C136.671 142.382 137.017 142.258 137.331 142.073H137.609V144.834Z" fill="#6C6B71"/>
<path d="M173.791 144.057V145.313H173.186V142.073H174.344C175.015 142.073 175.36 142.484 175.36 143.046C175.36 143.655 174.953 144.057 174.344 144.057H173.791ZM173.791 142.611V143.523H174.282C174.575 143.523 174.736 143.343 174.736 143.05C174.736 142.786 174.571 142.616 174.282 142.616L173.791 142.611Z" fill="#6C6B71"/>
<path d="M175.774 145.313V142.073H177.839V142.611H176.379V143.386H177.631V143.924H176.379V144.775H177.867V145.313H175.774Z" fill="#6C6B71"/>
<path d="M178.963 143.962V145.313H178.358V142.073H179.714C180.371 142.073 180.706 142.465 180.706 142.998C180.712 143.175 180.662 143.35 180.565 143.498C180.468 143.646 180.327 143.76 180.163 143.825L180.787 145.309H180.13L179.591 143.957L178.963 143.962ZM178.963 142.611V143.428H179.629C179.922 143.428 180.054 143.268 180.054 142.998C180.054 142.762 179.936 142.611 179.653 142.611H178.963Z" fill="#6C6B71"/>
<path d="M181.712 145.313H181.114V142.073H181.718L181.712 145.313Z" fill="#6C6B71"/>
<path d="M184.802 143.693C184.802 144.836 184.292 145.37 183.456 145.37C182.62 145.37 182.109 144.836 182.109 143.693C182.109 142.55 182.62 142.016 183.456 142.016C184.292 142.016 184.802 142.55 184.802 143.693ZM182.733 143.575V143.811C182.733 144.458 182.969 144.85 183.456 144.85C183.942 144.85 184.179 144.458 184.179 143.811V143.575C184.179 142.928 183.942 142.535 183.456 142.535C182.969 142.535 182.733 142.928 182.733 143.575Z" fill="#6C6B71"/>
<path d="M185.247 145.313V142.073H186.301C187.109 142.073 187.6 142.602 187.6 143.646C187.6 144.756 187.109 145.313 186.301 145.313H185.247ZM185.852 142.611V144.775H186.244C186.693 144.775 186.976 144.439 186.976 143.764V143.528C186.976 142.918 186.693 142.611 186.244 142.611H185.852Z" fill="#6C6B71"/>
<path d="M190.835 142.857C190.835 143.712 189.9 144.392 189.701 144.784H190.849V145.313H188.992V145.195C188.992 144.179 190.24 143.735 190.24 142.847C190.24 142.696 190.174 142.493 189.942 142.493C189.711 142.493 189.616 142.72 189.616 142.984V143.178H189.035C189.025 143.115 189.02 143.052 189.021 142.989C189.021 142.295 189.46 142.006 189.966 142.006C190.444 142.016 190.835 142.261 190.835 142.857Z" fill="#6C6B71"/>
<path d="M226.506 144.057V145.313H225.902V142.073H227.059C227.73 142.073 228.074 142.484 228.074 143.046C228.074 143.655 227.669 144.057 227.059 144.057H226.506ZM226.506 142.611V143.523H226.998C227.291 143.523 227.451 143.343 227.451 143.05C227.451 142.786 227.286 142.616 226.998 142.616L226.506 142.611Z" fill="#6C6B71"/>
<path d="M228.486 145.313V142.073H230.549V142.611H229.091V143.386H230.342V143.924H229.091V144.775H230.578V145.313H228.486Z" fill="#6C6B71"/>
<path d="M231.675 143.962V145.313H231.072V142.073H232.428C233.084 142.073 233.419 142.465 233.419 142.998C233.425 143.175 233.376 143.349 233.279 143.497C233.182 143.645 233.041 143.76 232.877 143.825L233.499 145.309H232.844L232.305 143.957L231.675 143.962ZM231.675 142.611V143.428H232.341C232.634 143.428 232.766 143.268 232.766 142.998C232.766 142.762 232.648 142.611 232.364 142.611H231.675Z" fill="#6C6B71"/>
<path d="M234.424 145.313H233.82V142.073H234.424V145.313Z" fill="#6C6B71"/>
<path d="M237.513 143.693C237.513 144.836 237.002 145.37 236.167 145.37C235.332 145.37 234.821 144.836 234.821 143.693C234.821 142.55 235.331 142.016 236.167 142.016C237.004 142.016 237.513 142.55 237.513 143.693ZM235.445 143.575V143.811C235.445 144.458 235.681 144.85 236.167 144.85C236.654 144.85 236.889 144.458 236.889 143.811V143.575C236.889 142.928 236.653 142.535 236.167 142.535C235.682 142.535 235.442 142.928 235.442 143.575H235.445Z" fill="#6C6B71"/>
<path d="M237.958 145.313V142.073H239.011C239.818 142.073 240.311 142.602 240.311 143.646C240.311 144.756 239.819 145.313 239.011 145.313H237.958ZM238.563 142.611V144.775H238.955C239.404 144.775 239.686 144.439 239.686 143.764V143.528C239.686 142.918 239.404 142.611 238.955 142.611H238.563Z" fill="#6C6B71"/>
<path d="M243.503 142.904C243.511 143.053 243.476 143.201 243.401 143.33C243.326 143.46 243.216 143.564 243.083 143.631V143.65C243.357 143.754 243.555 144.014 243.555 144.444C243.555 145.02 243.168 145.37 242.621 145.37C242.002 145.37 241.662 144.987 241.662 144.397V144.312H242.252V144.411C242.252 144.718 242.37 144.893 242.607 144.893C242.819 144.893 242.961 144.742 242.961 144.42C242.961 144.014 242.777 143.91 242.575 143.91H242.419V143.438H242.584C242.764 143.438 242.904 143.272 242.904 142.937C242.904 142.635 242.786 142.502 242.608 142.502C242.429 142.502 242.305 142.654 242.305 142.956V143.046H241.715V142.913C241.708 142.795 241.727 142.677 241.769 142.566C241.812 142.455 241.877 142.355 241.961 142.271C242.044 142.187 242.145 142.122 242.256 142.08C242.366 142.037 242.485 142.019 242.603 142.025C243.144 142.016 243.503 142.328 243.503 142.904Z" fill="#6C6B71"/>
</g>
<g clip-path="url(#clip3_16164_1251)">
<path d="M380.253 218.305C377.748 214.864 374.72 211.836 371.279 209.331L347.438 242.148L380.253 218.305Z" fill="#FF7667"/>
<path d="M371.279 209.331C367.838 206.824 364.023 204.877 359.973 203.562L347.438 242.149L371.279 209.331Z" fill="#FF7667"/>
<path d="M388.001 242.149C388.004 237.892 387.337 233.66 386.023 229.611L347.438 242.149H388.001Z" fill="#FF7667"/>
<path d="M386.024 254.684C387.339 250.636 388.006 246.405 388.003 242.149H347.44L386.024 254.684Z" fill="#79BBDE"/>
<path d="M359.973 203.562C355.925 202.248 351.694 201.58 347.438 201.584V242.149L359.973 203.562Z" fill="#FF7667"/>
<path d="M386.024 229.611C384.71 225.562 382.763 221.746 380.255 218.305L347.44 242.149L386.024 229.611Z" fill="#FF7667"/>
<path d="M359.973 280.733C364.023 279.419 367.839 277.472 371.279 274.964L347.438 242.149L359.973 280.733Z" fill="#79BBDE"/>
<path d="M347.438 282.712C351.694 282.715 355.925 282.047 359.973 280.733L347.438 242.149V282.712Z" fill="#79BBDE"/>
<path d="M314.621 265.996C317.125 269.437 320.153 272.465 323.595 274.969L347.438 242.154L314.621 265.996Z" fill="#0288BB"/>
<path d="M323.591 274.964C327.031 277.472 330.847 279.419 334.897 280.733L347.434 242.149L323.591 274.964Z" fill="#0288BB"/>
<path d="M334.9 280.733C338.95 282.047 343.181 282.715 347.438 282.712V242.149L334.9 280.733Z" fill="#0288BB"/>
<path d="M347.438 242.149L380.253 265.996C382.761 262.555 384.708 258.739 386.023 254.69L347.438 242.149Z" fill="#79BBDE"/>
<path d="M371.279 274.964C374.721 272.46 377.749 269.432 380.253 265.99L347.438 242.149L371.279 274.964Z" fill="#79BBDE"/>
<path d="M323.591 209.331C320.15 211.836 317.122 214.864 314.617 218.305L347.434 242.148L323.591 209.331Z" fill="#E8E8EA"/>
<path d="M308.851 254.684C310.166 258.735 312.113 262.553 314.621 265.996L347.438 242.154L308.851 254.684Z" fill="#0288BB"/>
<path d="M347.438 201.584C343.181 201.58 338.95 202.248 334.9 203.562L347.438 242.149V201.584Z" fill="#E8E8EA"/>
<path d="M334.9 203.562C330.851 204.877 327.036 206.824 323.595 209.331L347.438 242.149L334.9 203.562Z" fill="#E8E8EA"/>
<path d="M314.621 218.305C312.114 221.746 310.167 225.562 308.851 229.611L347.438 242.149L314.621 218.305Z" fill="#E8E8EA"/>
<path d="M306.873 242.149C306.87 246.405 307.537 250.636 308.851 254.684L347.438 242.149H306.873Z" fill="#E8E8EA"/>
<path d="M308.851 229.611C307.537 233.66 306.87 237.892 306.873 242.149H347.438L308.851 229.611Z" fill="#E8E8EA"/>
<path d="M360.534 224.389C360.534 226.07 358.695 227.407 358.305 228.178H360.562V229.218H356.912V228.996C356.912 226.999 359.357 226.125 359.357 224.38C359.357 224.082 359.227 223.691 358.772 223.691C358.317 223.691 358.131 224.139 358.131 224.658V225.034H356.987C356.968 224.91 356.96 224.784 356.961 224.658C356.961 223.293 357.824 222.727 358.819 222.727C359.772 222.743 360.534 223.219 360.534 224.389Z" fill="white"/>
<path d="M364.586 223.887H362.488L362.394 225.391C362.649 225.18 362.972 225.068 363.304 225.075C364.169 225.075 364.855 225.735 364.855 227.144C364.855 228.552 364.141 229.336 362.988 229.336C361.835 229.336 361.107 228.547 361.107 227.245H362.268C362.268 227.952 362.527 228.408 362.982 228.408C363.437 228.408 363.699 227.979 363.699 227.144C363.699 226.401 363.419 225.991 363.048 225.991C362.678 225.991 362.499 226.224 362.36 226.531L361.282 226.382L361.497 222.852H364.586V223.887Z" fill="white"/>
<path d="M367.971 224.417C367.971 225.707 367.488 226.089 366.689 226.089C365.89 226.089 365.406 225.698 365.406 224.417C365.406 223.136 365.89 222.736 366.689 222.736C367.488 222.736 367.971 223.119 367.971 224.417ZM366.931 229.218H366.142L370.023 222.847H370.822L366.931 229.218ZM366.234 224.342V224.481C366.234 225.03 366.318 225.41 366.689 225.41C367.059 225.41 367.144 225.034 367.144 224.481V224.342C367.144 223.794 367.061 223.413 366.689 223.413C366.317 223.413 366.228 223.794 366.228 224.342H366.234ZM371.537 227.657C371.537 228.949 371.055 229.331 370.256 229.331C369.457 229.331 368.974 228.94 368.974 227.657C368.974 226.375 369.457 225.976 370.256 225.976C371.055 225.976 371.531 226.367 371.531 227.657H371.537ZM369.801 227.584V227.723C369.801 228.27 369.884 228.652 370.256 228.652C370.629 228.652 370.711 228.276 370.711 227.723V227.584C370.711 227.036 370.627 226.655 370.256 226.655C369.886 226.655 369.795 227.036 369.795 227.584H369.801Z" fill="white"/>
<path d="M324.964 261.492H326.28V262.432H322.425V261.492H323.856V257.516H322.416V256.781C323.124 256.673 323.805 256.43 324.422 256.065H324.971L324.964 261.492Z" fill="white"/>
<path d="M330.034 257.099H327.935L327.843 258.603C328.099 258.392 328.421 258.28 328.753 258.287C329.616 258.287 330.304 258.946 330.304 260.356C330.304 261.766 329.588 262.549 328.437 262.549C327.286 262.549 326.556 261.759 326.556 260.459H327.728C327.728 261.165 327.988 261.62 328.443 261.62C328.87 261.62 329.157 261.193 329.157 260.356C329.157 259.613 328.879 259.205 328.507 259.205C328.164 259.205 327.959 259.436 327.82 259.743L326.743 259.594L326.957 256.065H330.039L330.034 257.099Z" fill="white"/>
<path d="M333.405 257.627C333.405 258.919 332.922 259.299 332.125 259.299C331.327 259.299 330.842 258.91 330.842 257.627C330.842 256.345 331.325 255.946 332.125 255.946C332.924 255.946 333.405 256.337 333.405 257.627ZM332.365 262.43H331.576L335.459 256.057H336.258L332.365 262.43ZM331.67 257.554V257.693C331.67 258.24 331.752 258.622 332.125 258.622C332.497 258.622 332.58 258.246 332.58 257.693V257.554C332.58 257.005 332.495 256.625 332.125 256.625C331.754 256.625 331.677 257.005 331.677 257.554H331.67ZM336.973 260.869C336.973 262.159 336.489 262.541 335.69 262.541C334.891 262.541 334.41 262.152 334.41 260.869C334.41 259.587 334.893 259.188 335.69 259.188C336.488 259.188 336.973 259.577 336.973 260.869ZM335.235 260.794V260.933C335.235 261.482 335.32 261.862 335.69 261.862C336.061 261.862 336.145 261.486 336.145 260.933V260.794C336.145 260.247 336.063 259.865 335.69 259.865C335.318 259.865 335.235 260.247 335.235 260.794Z" fill="white"/>
<path d="M359.095 257.693C359.112 257.986 359.043 258.277 358.896 258.531C358.749 258.785 358.532 258.99 358.27 259.122V259.16C358.808 259.365 359.21 259.874 359.21 260.721C359.21 261.849 358.448 262.541 357.371 262.541C356.154 262.541 355.49 261.789 355.49 260.629V260.461H356.652V260.649C356.652 261.253 356.893 261.589 357.358 261.589C357.775 261.589 358.053 261.292 358.053 260.649C358.053 259.85 357.692 259.647 357.301 259.647H356.995V258.707H357.32C357.674 258.707 357.952 258.381 357.952 257.721C357.952 257.127 357.73 256.867 357.367 256.867C357.004 256.867 356.773 257.165 356.773 257.759V257.936H355.611V257.676C355.611 256.617 356.337 255.929 357.358 255.929C358.39 255.946 359.095 256.559 359.095 257.693Z" fill="white"/>
<path d="M363.443 259.244C363.443 261.836 362.747 262.541 361.604 262.541C360.461 262.541 359.765 261.836 359.765 259.244C359.765 256.653 360.453 255.946 361.604 255.946C362.755 255.946 363.443 256.651 363.443 259.244ZM360.927 258.919V259.568C360.927 260.961 361.038 261.603 361.604 261.603C362.17 261.603 362.283 260.961 362.283 259.568V258.919C362.283 257.526 362.17 256.884 361.604 256.884C361.038 256.884 360.927 257.533 360.927 258.919Z" fill="white"/>
<path d="M366.61 257.627C366.61 258.919 366.128 259.299 365.329 259.299C364.53 259.299 364.047 258.91 364.047 257.627C364.047 256.345 364.53 255.946 365.329 255.946C366.128 255.946 366.61 256.337 366.61 257.627ZM365.57 262.43H364.774L368.658 256.057H369.457L365.57 262.43ZM364.874 257.554V257.693C364.874 258.24 364.957 258.622 365.329 258.622C365.702 258.622 365.784 258.246 365.784 257.693V257.554C365.784 257.005 365.7 256.625 365.329 256.625C364.959 256.625 364.874 257.005 364.874 257.554ZM370.177 260.869C370.177 262.159 369.694 262.541 368.895 262.541C368.095 262.541 367.614 262.152 367.614 260.869C367.614 259.587 368.097 259.188 368.895 259.188C369.692 259.188 370.177 259.577 370.177 260.869ZM368.44 260.794V260.933C368.44 261.482 368.524 261.862 368.895 261.862C369.265 261.862 369.35 261.486 369.35 260.933V260.794C369.35 260.247 369.267 259.865 368.895 259.865C368.522 259.865 368.44 260.247 368.44 260.794Z" fill="white"/>
<path d="M208.076 274.964C215 280.011 223.35 282.725 231.919 282.712V242.149L208.076 274.964Z" fill="#E8E8EA"/>
<path d="M231.919 201.584C223.35 201.572 215 204.285 208.076 209.332L231.919 242.149V201.584Z" fill="#E8E8EA"/>
<path d="M270.505 229.611C267.851 221.466 262.691 214.369 255.762 209.331L231.919 242.148L270.505 229.611Z" fill="#E8E8EA"/>
<path d="M193.334 229.611C190.696 237.761 190.696 246.535 193.334 254.684L231.919 242.149L193.334 229.611Z" fill="#E8E8EA"/>
<path d="M270.505 254.684L231.919 242.149L255.762 274.964C262.691 269.927 267.851 262.829 270.505 254.684Z" fill="#E8E8EA"/>
<path d="M257.697 203.526C250.773 198.478 242.422 195.765 233.854 195.778V236.341L257.697 203.526Z" fill="#C0CCDA"/>
<path d="M208.076 209.331C201.147 214.369 195.988 221.466 193.334 229.611L231.919 242.148L208.076 209.331Z" fill="#E8E8EA"/>
<path d="M193.334 254.684C195.988 262.829 201.147 269.926 208.076 274.964L231.919 242.149L193.334 254.684Z" fill="#E8E8EA"/>
<path d="M231.919 282.712C240.487 282.725 248.838 280.011 255.762 274.964L231.919 242.149V282.712Z" fill="#E8E8EA"/>
<path d="M270.505 254.684C273.143 246.535 273.143 237.761 270.505 229.611L231.919 242.149L270.505 254.684Z" fill="#E8E8EA"/>
<path d="M208.072 254.295H209.163V255.077H205.951V254.295H207.143V250.981H205.943V250.363C206.533 250.272 207.101 250.07 207.615 249.766H208.072V254.295Z" fill="#6C6B71"/>
<path d="M212.469 252.422C212.469 254.581 211.887 255.169 210.936 255.169C209.984 255.169 209.403 254.581 209.403 252.422C209.403 250.263 209.967 249.672 210.936 249.672C211.904 249.672 212.469 250.261 212.469 252.422ZM210.37 252.151V252.693C210.37 253.853 210.464 254.385 210.934 254.385C211.404 254.385 211.498 253.851 211.498 252.693V252.151C211.498 250.989 211.406 250.459 210.934 250.459C210.462 250.459 210.37 250.989 210.37 252.151Z" fill="#6C6B71"/>
<path d="M215.107 251.073C215.107 252.151 214.704 252.467 214.039 252.467C213.373 252.467 212.971 252.142 212.971 251.073C212.971 250.005 213.373 249.672 214.039 249.672C214.704 249.672 215.107 249.998 215.107 251.073ZM214.24 255.077H213.58L216.816 249.767H217.482L214.24 255.077ZM213.661 251.011V251.128C213.661 251.585 213.73 251.903 214.037 251.903C214.343 251.903 214.413 251.585 214.413 251.128V251.011C214.413 250.554 214.343 250.239 214.037 250.239C213.73 250.239 213.661 250.554 213.661 251.011ZM218.08 253.776C218.08 254.851 217.678 255.169 217.012 255.169C216.346 255.169 215.944 254.844 215.944 253.776C215.944 252.708 216.346 252.375 217.012 252.375C217.678 252.375 218.08 252.7 218.08 253.772V253.776ZM216.632 253.714V253.83C216.632 254.287 216.702 254.603 217.008 254.603C217.315 254.603 217.384 254.287 217.384 253.83V253.714C217.384 253.257 217.315 252.939 217.008 252.939C216.702 252.939 216.632 253.257 216.632 253.714Z" fill="#6C6B71"/>
<path d="M223.381 253.041V253.272H221.313C221.313 254 221.484 254.412 221.941 254.412C222.259 254.412 222.46 254.124 222.46 253.637H223.379C223.379 254.682 222.768 255.169 221.941 255.169C220.895 255.169 220.346 254.504 220.346 253.041C220.346 251.578 220.91 250.912 221.909 250.912C222.907 250.912 223.381 251.578 223.381 253.041ZM221.322 252.599H222.407C222.407 252.01 222.251 251.67 221.911 251.67C221.516 251.67 221.354 252.01 221.322 252.599Z" fill="#6C6B71"/>
<path d="M226.702 252.112V254.116C226.702 254.304 226.811 254.387 226.92 254.387H227.108V255.045C226.939 255.133 226.75 255.176 226.559 255.169C226.396 255.176 226.236 255.127 226.105 255.029C225.974 254.932 225.88 254.793 225.839 254.635H225.801C225.695 254.81 225.543 254.953 225.361 255.047C225.179 255.141 224.975 255.183 224.771 255.169C224.395 255.169 223.75 254.968 223.75 254.024C223.75 252.924 224.585 252.599 225.77 252.599V252.174C225.77 251.895 225.7 251.67 225.345 251.67C224.989 251.67 224.856 251.903 224.856 252.097V252.211H223.951C223.947 252.155 223.947 252.098 223.951 252.042C223.951 251.361 224.493 250.914 225.328 250.914C226.262 250.912 226.702 251.352 226.702 252.112ZM225.762 253.272C225.22 253.272 224.694 253.411 224.694 253.938C224.686 254 224.692 254.063 224.712 254.122C224.732 254.181 224.766 254.234 224.81 254.279C224.854 254.323 224.908 254.356 224.967 254.376C225.026 254.396 225.089 254.403 225.151 254.395C225.593 254.395 225.762 253.985 225.762 253.505V253.272Z" fill="#6C6B71"/>
<path d="M230.418 252.537H229.467C229.467 251.972 229.311 251.694 228.995 251.694C228.6 251.694 228.451 252.112 228.451 252.894V253.187C228.451 253.97 228.607 254.387 229.025 254.387C229.358 254.387 229.497 254.101 229.497 253.545H230.418C230.418 254.682 229.877 255.169 229.025 255.169C227.964 255.169 227.485 254.504 227.485 253.041C227.485 251.578 227.987 250.912 228.989 250.912C229.862 250.912 230.418 251.399 230.418 252.537Z" fill="#6C6B71"/>
<path d="M232.05 251.438H232.082C232.19 251.277 232.337 251.144 232.508 251.052C232.68 250.96 232.871 250.912 233.066 250.912C233.692 250.912 234.149 251.26 234.149 252.228V255.085H233.22V252.474C233.22 251.948 233.019 251.756 232.686 251.756C232.321 251.756 232.05 252.112 232.05 252.569V255.077H231.121V249.479H232.05V251.438Z" fill="#6C6B71"/>
<path d="M239.907 253.048C239.907 254.526 239.366 255.169 238.645 255.169C238.461 255.182 238.277 255.141 238.116 255.05C237.955 254.959 237.825 254.823 237.741 254.658H237.701V256.416H236.772V251.004H237.547L237.639 251.508H237.679C237.758 251.331 237.887 251.18 238.051 251.074C238.214 250.968 238.404 250.912 238.598 250.912C239.398 250.912 239.907 251.57 239.907 253.048ZM237.701 252.894V253.172C237.701 253.908 237.873 254.325 238.32 254.325C238.768 254.325 238.941 253.923 238.941 253.187V252.894C238.941 252.159 238.77 251.766 238.32 251.766C237.871 251.766 237.694 252.159 237.694 252.894H237.701Z" fill="#6C6B71"/>
<path d="M243.785 253.041C243.785 254.504 243.243 255.169 242.16 255.169C241.077 255.169 240.534 254.504 240.534 253.041C240.534 251.578 241.077 250.912 242.16 250.912C243.243 250.912 243.785 251.578 243.785 253.041ZM241.502 252.894V253.187C241.502 253.97 241.681 254.387 242.16 254.387C242.64 254.387 242.818 253.97 242.818 253.187V252.894C242.818 252.112 242.64 251.694 242.16 251.694C241.681 251.694 241.502 252.112 241.502 252.894Z" fill="#6C6B71"/>
<path d="M246.542 250.974V251.871H246.209C245.806 251.871 245.457 252.089 245.457 252.811V255.081H244.528V251.008H245.302L245.412 251.604H245.457C245.566 251.263 245.752 250.915 246.162 250.915C246.291 250.912 246.42 250.932 246.542 250.974Z" fill="#6C6B71"/>
<path d="M247.973 251.004H248.558V251.786H247.969V254.054C247.963 254.099 247.967 254.144 247.981 254.186C247.996 254.229 248.019 254.268 248.051 254.3C248.082 254.332 248.12 254.357 248.162 254.372C248.205 254.387 248.25 254.392 248.294 254.387H248.558V255.077C248.375 255.134 248.185 255.165 247.994 255.169C247.241 255.169 247.034 254.62 247.034 254.079V251.786H246.625V251.004H247.053L247.192 249.859H247.982L247.973 251.004Z" fill="#6C6B71"/>
<path d="M250.025 250.323H249.096V249.479H250.025V250.323ZM250.025 255.077H249.096V251.004H250.025V255.077Z" fill="#6C6B71"/>
<path d="M254.011 253.041C254.011 254.504 253.47 255.169 252.385 255.169C251.3 255.169 250.76 254.504 250.76 253.041C250.76 251.578 251.301 250.912 252.385 250.912C253.468 250.912 254.011 251.578 254.011 253.041ZM251.726 252.894V253.187C251.726 253.97 251.914 254.387 252.385 254.387C252.855 254.387 253.043 253.97 253.043 253.187V252.894C253.043 252.112 252.864 251.694 252.385 251.694C251.905 251.694 251.726 252.112 251.726 252.894Z" fill="#6C6B71"/>
<path d="M257.772 252.221V255.077H256.843V252.475C256.843 251.948 256.642 251.756 256.309 251.756C255.946 251.756 255.676 252.112 255.676 252.569V255.077H254.745V251.004H255.516L255.61 251.508H255.655C255.761 251.328 255.911 251.179 256.092 251.075C256.272 250.97 256.477 250.914 256.685 250.912C257.315 250.912 257.772 251.26 257.772 252.221Z" fill="#6C6B71"/>
<path d="M476.495 218.64C474.025 215.173 471.028 212.115 467.611 209.576L443.437 242.149L476.495 218.64Z" fill="#E8E8EA"/>
<path d="M467.611 209.58C464.196 207.038 460.401 205.053 456.366 203.695L443.437 242.152L467.611 209.58Z" fill="#E8E8EA"/>
<path d="M484 242.56C484.048 238.304 483.423 234.066 482.15 230.004L443.439 242.149L484 242.56Z" fill="#E8E8EA"/>
<path d="M481.894 255.077C483.248 251.041 483.958 246.817 483.998 242.56L443.437 242.149L481.894 255.077Z" fill="#E8E8EA"/>
<path d="M456.986 199.827C452.95 198.472 448.726 197.762 444.469 197.721L444.058 238.284L456.986 199.827Z" fill="#C0CCDA"/>
<path d="M482.148 230.004C480.874 225.942 478.966 222.106 476.495 218.64L443.437 242.146L482.148 230.004Z" fill="#E8E8EA"/>
<path d="M455.581 280.852C459.643 279.576 463.479 277.668 466.946 275.197L443.439 242.141L455.581 280.852Z" fill="#E8E8EA"/>
<path d="M443.025 282.71C447.282 282.755 451.519 282.131 455.581 280.859L443.437 242.149L443.025 282.71Z" fill="#E8E8EA"/>
<path d="M410.379 265.655C412.849 269.122 415.846 272.181 419.261 274.721L443.437 242.149L410.379 265.655Z" fill="#E8E8EA"/>
<path d="M419.261 274.721C422.677 277.262 426.473 279.247 430.508 280.604L443.437 242.149L419.261 274.721Z" fill="#E8E8EA"/>
<path d="M430.508 280.604C434.544 281.958 438.768 282.669 443.025 282.71L443.437 242.149L430.508 280.604Z" fill="#E8E8EA"/>
<path d="M443.437 242.149L476.01 266.323C478.551 262.907 480.537 259.112 481.894 255.077L443.437 242.149Z" fill="#E8E8EA"/>
<path d="M466.946 275.21C470.412 272.741 473.47 269.744 476.01 266.328L443.437 242.149L466.946 275.21Z" fill="#E8E8EA"/>
<path d="M419.929 209.091C416.463 211.561 413.404 214.558 410.864 217.973L443.437 242.149L419.929 209.091Z" fill="#E8E8EA"/>
<path d="M404.726 254.293C406 258.355 407.908 262.189 410.379 265.655L443.437 242.149L404.726 254.293Z" fill="#E8E8EA"/>
<path d="M443.849 201.585C439.592 201.54 435.355 202.164 431.293 203.436L443.437 242.148L443.849 201.585Z" fill="#E8E8EA"/>
<path d="M431.292 203.436C427.231 204.711 423.395 206.62 419.928 209.091L443.435 242.149L431.292 203.436Z" fill="#E8E8EA"/>
<path d="M410.864 217.972C408.323 221.388 406.337 225.183 404.98 229.218L443.437 242.148L410.864 217.972Z" fill="#E8E8EA"/>
<path d="M402.876 241.736C402.828 245.994 403.453 250.232 404.726 254.295L443.437 242.15L402.876 241.736Z" fill="#E8E8EA"/>
<path d="M404.98 229.218C403.625 233.254 402.915 237.478 402.876 241.735L443.437 242.148L404.98 229.218Z" fill="#E8E8EA"/>
<path d="M422.052 250.633H420.301L420.224 251.888C420.435 251.713 420.702 251.62 420.976 251.624C421.696 251.624 422.27 252.174 422.27 253.341C422.27 254.509 421.674 255.169 420.713 255.169C419.752 255.169 419.15 254.511 419.15 253.428H420.117C420.117 254.016 420.335 254.394 420.713 254.394C421.091 254.394 421.309 254.039 421.309 253.341C421.309 252.723 421.078 252.382 420.767 252.382C420.457 252.382 420.31 252.57 420.203 252.832L419.304 252.708L419.483 249.766H422.054L422.052 250.633Z" fill="#6C6B71"/>
<path d="M424.861 251.073C424.861 252.151 424.459 252.467 423.791 252.467C423.124 252.467 422.723 252.142 422.723 251.073C422.723 250.005 423.125 249.672 423.791 249.672C424.457 249.672 424.861 249.998 424.861 251.073ZM423.994 255.077H423.336L426.571 249.767H427.238L423.994 255.077ZM423.413 251.011V251.128C423.413 251.585 423.483 251.903 423.789 251.903C424.096 251.903 424.165 251.585 424.165 251.128V251.011C424.165 250.554 424.096 250.239 423.789 250.239C423.483 250.239 423.413 250.554 423.413 251.011ZM427.834 253.776C427.834 254.851 427.43 255.169 426.764 255.169C426.099 255.169 425.696 254.844 425.696 253.776C425.696 252.708 426.099 252.375 426.764 252.375C427.43 252.375 427.834 252.7 427.834 253.772V253.776ZM426.386 253.714V253.83C426.386 254.287 426.456 254.603 426.762 254.603C427.069 254.603 427.138 254.287 427.138 253.83V253.714C427.138 253.257 427.069 252.939 426.762 252.939C426.456 252.939 426.386 253.257 426.386 253.714Z" fill="#6C6B71"/>
<path d="M433.135 253.041V253.272H431.067C431.067 254 431.236 254.412 431.693 254.412C432.011 254.412 432.212 254.124 432.212 253.637H433.134C433.134 254.682 432.522 255.169 431.693 255.169C430.647 255.169 430.098 254.504 430.098 253.041C430.098 251.578 430.663 250.912 431.663 250.912C432.663 250.912 433.135 251.578 433.135 253.041ZM431.076 252.599H432.159C432.159 252.01 432.005 251.67 431.665 251.67C431.27 251.67 431.106 252.01 431.076 252.599Z" fill="#6C6B71"/>
<path d="M436.456 252.112V254.116C436.456 254.304 436.564 254.387 436.673 254.387H436.861V255.045C436.691 255.133 436.501 255.176 436.31 255.169C436.147 255.176 435.987 255.126 435.856 255.029C435.725 254.932 435.631 254.793 435.59 254.635H435.552C435.446 254.81 435.293 254.953 435.112 255.047C434.93 255.141 434.726 255.184 434.521 255.169C434.145 255.169 433.5 254.968 433.5 254.024C433.5 252.924 434.337 252.599 435.52 252.599V252.174C435.52 251.895 435.45 251.67 435.095 251.67C434.74 251.67 434.608 251.903 434.608 252.097V252.211H433.701C433.697 252.155 433.697 252.098 433.701 252.042C433.701 251.361 434.243 250.914 435.08 250.914C436.015 250.912 436.456 251.352 436.456 252.112ZM435.516 253.272C434.975 253.272 434.448 253.411 434.448 253.938C434.44 254 434.446 254.063 434.466 254.122C434.487 254.181 434.52 254.234 434.564 254.279C434.608 254.323 434.662 254.356 434.721 254.376C434.78 254.396 434.843 254.403 434.905 254.395C435.347 254.395 435.516 253.985 435.516 253.505V253.272Z" fill="#6C6B71"/>
<path d="M440.17 252.537H439.219C439.219 251.972 439.063 251.694 438.747 251.694C438.352 251.694 438.205 252.112 438.205 252.894V253.187C438.205 253.97 438.36 254.387 438.77 254.387C439.102 254.387 439.242 254.101 439.242 253.545H440.163C440.163 254.682 439.621 255.169 438.77 255.169C437.709 255.169 437.229 254.504 437.229 253.041C437.229 251.578 437.733 250.912 438.734 250.912C439.62 250.912 440.17 251.399 440.17 252.537Z" fill="#6C6B71"/>
<path d="M441.805 251.438H441.835C441.943 251.277 442.089 251.144 442.261 251.052C442.432 250.961 442.624 250.912 442.818 250.912C443.445 250.912 443.902 251.26 443.902 252.228V255.085H442.973V252.474C442.973 251.948 442.771 251.756 442.438 251.756C442.076 251.756 441.805 252.112 441.805 252.569V255.077H440.876V249.479H441.805V251.438Z" fill="#6C6B71"/>
<path d="M449.652 253.048C449.652 254.526 449.111 255.169 448.39 255.169C448.206 255.182 448.022 255.141 447.861 255.05C447.7 254.959 447.57 254.823 447.486 254.658H447.446V256.416H446.517V251.004H447.292L447.384 251.508H447.424C447.503 251.33 447.633 251.179 447.796 251.074C447.96 250.968 448.15 250.912 448.345 250.912C449.15 250.912 449.652 251.57 449.652 253.048ZM447.446 252.894V253.172C447.446 253.908 447.617 254.325 448.067 254.325C448.516 254.325 448.686 253.923 448.686 253.187V252.894C448.686 252.159 448.514 251.766 448.067 251.766C447.619 251.766 447.446 252.159 447.446 252.894Z" fill="#6C6B71"/>
<path d="M453.536 253.041C453.536 254.504 452.994 255.169 451.909 255.169C450.824 255.169 450.284 254.504 450.284 253.041C450.284 251.578 450.826 250.912 451.909 250.912C452.992 250.912 453.536 251.578 453.536 253.041ZM451.251 252.894V253.187C451.251 253.97 451.439 254.387 451.909 254.387C452.379 254.387 452.567 253.97 452.567 253.187V252.894C452.567 252.112 452.388 251.694 451.909 251.694C451.429 251.694 451.254 252.112 451.254 252.894H451.251Z" fill="#6C6B71"/>
<path d="M456.294 250.974V251.871H455.961C455.559 251.871 455.209 252.089 455.209 252.811V255.081H454.28V251.008H455.04L455.149 251.604H455.194C455.303 251.264 455.489 250.916 455.899 250.916C456.033 250.91 456.167 250.93 456.294 250.974Z" fill="#6C6B71"/>
<path d="M457.725 251.004H458.314V251.786H457.725V254.054C457.719 254.099 457.723 254.144 457.738 254.186C457.752 254.229 457.775 254.268 457.807 254.3C457.838 254.332 457.876 254.357 457.919 254.372C457.961 254.387 458.006 254.392 458.051 254.387H458.314V255.077C458.131 255.134 457.941 255.165 457.75 255.169C457.007 255.169 456.789 254.62 456.789 254.079V251.786H456.379V251.004H456.789L456.928 249.859H457.718L457.725 251.004Z" fill="#6C6B71"/>
<path d="M459.777 250.323H458.848V249.479H459.777V250.323ZM459.777 255.077H458.848V251.004H459.777V255.077Z" fill="#6C6B71"/>
<path d="M463.764 253.041C463.764 254.504 463.222 255.169 462.137 255.169C461.052 255.169 460.512 254.504 460.512 253.041C460.512 251.578 461.054 250.912 462.137 250.912C463.22 250.912 463.764 251.578 463.764 253.041ZM461.481 252.894V253.187C461.481 253.97 461.657 254.387 462.137 254.387C462.616 254.387 462.795 253.97 462.795 253.187V252.894C462.795 252.112 462.618 251.694 462.137 251.694C461.656 251.694 461.481 252.112 461.481 252.894Z" fill="#6C6B71"/>
<path d="M467.525 252.221V255.077H466.596V252.475C466.596 251.948 466.394 251.756 466.062 251.756C465.699 251.756 465.428 252.112 465.428 252.569V255.077H464.499V251.004H465.272L465.366 251.508H465.413C465.519 251.329 465.669 251.179 465.849 251.075C466.029 250.971 466.233 250.914 466.441 250.912C467.075 250.912 467.525 251.26 467.525 252.221Z" fill="#6C6B71"/>
<path d="M112.076 274.964C119 280.011 127.351 282.725 135.92 282.712V242.149L112.076 274.964Z" fill="#FF7667"/>
<path d="M135.914 201.584C127.346 201.571 118.995 204.285 112.071 209.332L135.914 242.149V201.584Z" fill="#79BBDE"/>
<path d="M174.504 229.611C171.851 221.466 166.691 214.369 159.763 209.331L135.914 242.148L174.504 229.611Z" fill="#79BBDE"/>
<path d="M97.3331 229.611C94.6954 237.761 94.6954 246.535 97.3331 254.684L135.914 242.149L97.3331 229.611Z" fill="#E8E8EA"/>
<path d="M174.504 254.684L135.914 242.149L159.757 274.964C166.688 269.927 171.849 262.829 174.504 254.684Z" fill="#0288BB"/>
<path d="M159.763 209.332C152.838 204.285 144.488 201.572 135.92 201.584V242.149L159.763 209.332Z" fill="#79BBDE"/>
<path d="M112.076 209.331C105.148 214.369 99.9876 221.466 97.3331 229.611L135.914 242.148L112.076 209.331Z" fill="#E8E8EA"/>
<path d="M97.3331 254.684C99.9876 262.829 105.148 269.927 112.076 274.964L135.914 242.149L97.3331 254.684Z" fill="#E8E8EA"/>
<path d="M135.914 282.712C144.483 282.725 152.833 280.011 159.757 274.964L135.914 242.149V282.712Z" fill="#0288BB"/>
<path d="M174.504 254.684C177.142 246.535 177.142 237.761 174.504 229.611L135.914 242.149L174.504 254.684Z" fill="#79BBDE"/>
<path d="M90.5556 290.711H91.872V291.652H88.0169V290.711H89.448V286.736H88.0075V285.984C88.7163 285.878 89.3978 285.635 90.0141 285.269H90.5632L90.5556 290.711Z" fill="#6C6B71"/>
<path d="M95.8305 288.462C95.8305 291.054 95.1347 291.761 93.9914 291.761C92.848 291.761 92.1522 291.054 92.1522 288.462C92.1522 285.871 92.8405 285.166 93.9914 285.166C95.1422 285.166 95.8305 285.871 95.8305 288.462ZM93.3144 288.137V288.788C93.3144 290.181 93.4253 290.822 93.9914 290.822C94.5574 290.822 94.6703 290.181 94.6703 288.788V288.137C94.6703 286.745 94.5593 286.104 93.9914 286.104C93.4234 286.104 93.3144 286.745 93.3144 288.137Z" fill="#6C6B71"/>
<path d="M98.9992 286.847C98.9992 288.137 98.5159 288.519 97.7167 288.519C96.9175 288.519 96.4342 288.129 96.4342 286.847C96.4342 285.564 96.9175 285.166 97.7167 285.166C98.5159 285.166 98.9992 285.553 98.9992 286.847ZM97.9574 291.65H97.1751L101.057 285.277H101.856L97.9574 291.65ZM97.2616 286.772V286.911C97.2616 287.46 97.3444 287.84 97.7167 287.84C98.0891 287.84 98.1718 287.464 98.1718 286.911V286.772C98.1718 286.225 98.0891 285.843 97.7167 285.843C97.3444 285.843 97.2616 286.225 97.2616 286.772ZM102.565 290.089C102.565 291.379 102.081 291.761 101.284 291.761C100.487 291.761 100.002 291.37 100.002 290.089C100.002 288.808 100.485 288.408 101.284 288.408C102.083 288.408 102.565 288.797 102.565 290.089ZM100.829 290.014V290.153C100.829 290.702 100.912 291.082 101.284 291.082C101.656 291.082 101.739 290.706 101.739 290.153V290.014C101.739 289.467 101.655 289.085 101.284 289.085C100.914 289.085 100.829 289.467 100.829 290.014Z" fill="#6C6B71"/>
<path d="M124.279 288.866H108.075V288.302H123.715V271.556H124.279V288.866Z" fill="#6C6B71"/>
<path d="M106.153 290.802C105.714 290.802 105.286 290.672 104.921 290.428C104.556 290.184 104.272 289.838 104.104 289.433C103.937 289.028 103.893 288.582 103.978 288.152C104.064 287.722 104.275 287.327 104.585 287.017C104.895 286.707 105.29 286.495 105.72 286.41C106.15 286.324 106.596 286.368 107.001 286.536C107.406 286.704 107.753 286.988 107.996 287.353C108.24 287.717 108.37 288.146 108.37 288.584C108.369 289.172 108.136 289.736 107.72 290.152C107.304 290.567 106.741 290.801 106.153 290.802ZM106.153 286.931C105.826 286.931 105.506 287.028 105.234 287.21C104.963 287.392 104.751 287.65 104.626 287.952C104.5 288.254 104.468 288.586 104.532 288.907C104.595 289.228 104.753 289.522 104.984 289.753C105.215 289.984 105.51 290.142 105.83 290.206C106.151 290.269 106.483 290.237 106.785 290.112C107.087 289.986 107.346 289.775 107.527 289.503C107.709 289.231 107.806 288.911 107.806 288.584C107.805 288.146 107.631 287.726 107.321 287.416C107.011 287.106 106.591 286.932 106.153 286.931Z" fill="#6C6B71"/>
<path d="M167.319 191C166.965 192.653 165.916 194.603 165.562 195.105H166.89V193.674C167.153 193.12 167.361 192.541 167.513 191.946H168.005V195.1H168.656V196.04H168.005V197.479H166.89V196.04H164.596V195.149C165.298 193.835 165.838 192.44 166.204 190.996L167.319 191Z" fill="#6C6B71"/>
<path d="M172.714 194.297C172.714 196.888 172.018 197.595 170.875 197.595C169.732 197.595 169.036 196.888 169.036 194.297C169.036 191.705 169.724 191 170.875 191C172.026 191 172.714 191.715 172.714 194.297ZM170.198 193.971V194.622C170.198 196.015 170.309 196.657 170.875 196.657C171.441 196.657 171.554 196.015 171.554 194.622V193.971C171.554 192.578 171.443 191.938 170.875 191.938C170.307 191.938 170.198 192.578 170.198 193.971Z" fill="#6C6B71"/>
<path d="M175.883 192.681C175.883 193.971 175.399 194.353 174.6 194.353C173.801 194.353 173.318 193.962 173.318 192.681C173.318 191.401 173.801 191 174.6 191C175.399 191 175.883 191.389 175.883 192.681ZM174.841 197.482H174.053L177.934 191.111H178.734L174.841 197.482ZM174.145 192.606V192.745C174.145 193.294 174.23 193.674 174.6 193.674C174.971 193.674 175.055 193.298 175.055 192.745V192.606C175.055 192.059 174.973 191.677 174.6 191.677C174.228 191.677 174.145 192.059 174.145 192.606ZM179.448 195.923C179.448 197.213 178.967 197.595 178.168 197.595C177.368 197.595 176.885 197.204 176.885 195.923C176.885 194.643 177.368 194.231 178.168 194.231C178.967 194.231 179.448 194.631 179.448 195.923ZM177.713 195.848V195.987C177.713 196.534 177.795 196.916 178.168 196.916C178.54 196.916 178.623 196.54 178.623 195.987V195.852C178.623 195.305 178.538 194.923 178.168 194.923C177.797 194.923 177.713 195.301 177.713 195.852V195.848Z" fill="#6C6B71"/>
<path d="M142.47 229.611H141.905V193.881H158.132V194.445H142.47V229.611Z" fill="#6C6B71"/>
<path d="M159.91 196.38C159.471 196.381 159.041 196.251 158.676 196.007C158.311 195.763 158.026 195.417 157.858 195.011C157.69 194.606 157.646 194.159 157.731 193.729C157.817 193.298 158.028 192.903 158.339 192.592C158.649 192.282 159.045 192.07 159.475 191.985C159.906 191.899 160.352 191.943 160.758 192.111C161.163 192.28 161.51 192.564 161.754 192.929C161.997 193.295 162.127 193.724 162.127 194.163C162.126 194.751 161.892 195.315 161.477 195.73C161.061 196.146 160.497 196.38 159.91 196.38ZM159.91 192.508C159.582 192.508 159.262 192.605 158.99 192.786C158.717 192.968 158.505 193.226 158.379 193.528C158.254 193.831 158.221 194.164 158.284 194.485C158.348 194.806 158.506 195.101 158.737 195.333C158.968 195.564 159.263 195.722 159.584 195.786C159.905 195.85 160.238 195.817 160.541 195.692C160.843 195.567 161.102 195.355 161.284 195.083C161.465 194.81 161.563 194.49 161.563 194.163C161.562 193.725 161.388 193.304 161.078 192.994C160.768 192.684 160.348 192.509 159.91 192.508Z" fill="#6C6B71"/>
<path d="M178.301 286.819C178.301 288.5 176.462 289.837 176.073 290.608H178.329V291.65H174.679V291.426C174.679 289.429 177.124 288.556 177.124 286.809C177.124 286.512 176.994 286.123 176.539 286.123C176.084 286.123 175.898 286.569 175.898 287.088V287.464H174.756C174.736 287.339 174.727 287.214 174.728 287.088C174.728 285.722 175.591 285.156 176.586 285.156C177.54 285.166 178.301 285.649 178.301 286.819Z" fill="#6C6B71"/>
<path d="M182.566 288.462C182.566 291.054 181.869 291.761 180.727 291.761C179.586 291.761 178.888 291.054 178.888 288.462C178.888 285.871 179.574 285.166 180.727 285.166C181.88 285.166 182.566 285.871 182.566 288.462ZM180.048 288.137V288.788C180.048 290.181 180.159 290.822 180.727 290.822C181.295 290.822 181.404 290.181 181.404 288.788V288.137C181.404 286.745 181.293 286.104 180.727 286.104C180.161 286.104 180.048 286.745 180.048 288.137Z" fill="#6C6B71"/>
<path d="M185.733 286.847C185.733 288.137 185.25 288.519 184.45 288.519C183.651 288.519 183.17 288.129 183.17 286.847C183.17 285.564 183.651 285.166 184.45 285.166C185.25 285.166 185.733 285.553 185.733 286.847ZM184.693 291.65H183.903L187.785 285.277H188.584L184.693 291.65ZM183.995 286.772V286.911C183.995 287.46 184.08 287.84 184.45 287.84C184.821 287.84 184.906 287.464 184.906 286.911V286.772C184.906 286.225 184.823 285.843 184.45 285.843C184.078 285.843 183.995 286.225 183.995 286.772ZM189.3 290.089C189.3 291.379 188.817 291.761 188.018 291.761C187.219 291.761 186.735 291.37 186.735 290.089C186.735 288.808 187.219 288.408 188.018 288.408C188.817 288.408 189.3 288.797 189.3 290.089ZM187.563 290.014V290.153C187.563 290.702 187.645 291.082 188.018 291.082C188.39 291.082 188.473 290.706 188.473 290.153V290.014C188.473 289.467 188.388 289.085 188.018 289.085C187.647 289.085 187.563 289.467 187.563 290.014Z" fill="#6C6B71"/>
<path d="M169.241 290.802C168.802 290.802 168.374 290.672 168.009 290.428C167.644 290.184 167.36 289.838 167.192 289.433C167.025 289.028 166.981 288.582 167.066 288.152C167.152 287.722 167.363 287.327 167.673 287.017C167.983 286.707 168.378 286.495 168.808 286.41C169.238 286.324 169.684 286.368 170.089 286.536C170.494 286.704 170.841 286.988 171.084 287.353C171.328 287.717 171.458 288.146 171.458 288.584C171.457 289.172 171.224 289.736 170.808 290.152C170.392 290.567 169.829 290.801 169.241 290.802ZM169.241 286.931C168.914 286.931 168.594 287.028 168.322 287.21C168.051 287.392 167.839 287.65 167.714 287.952C167.589 288.254 167.556 288.586 167.62 288.907C167.683 289.228 167.841 289.522 168.072 289.753C168.303 289.984 168.598 290.142 168.918 290.206C169.239 290.269 169.571 290.237 169.873 290.112C170.175 289.986 170.434 289.775 170.615 289.503C170.797 289.231 170.894 288.911 170.894 288.584C170.893 288.146 170.719 287.726 170.409 287.416C170.099 287.106 169.679 286.932 169.241 286.931Z" fill="#6C6B71"/>
<path d="M167.304 288.866H150.108V263.957H150.672V288.302H167.304V288.866Z" fill="#6C6B71"/>
</g>
<g clip-path="url(#clip4_16164_1251)">
<path d="M329.765 48.0894C331.723 48.0894 333.31 46.5024 333.31 44.5447C333.31 42.587 331.723 41 329.765 41C327.807 41 326.22 42.587 326.22 44.5447C326.22 46.5024 327.807 48.0894 329.765 48.0894Z" fill="#79BBDE"/>
<path d="M334.325 48.8441H325.207V60.7459H326.121V66.2994C326.106 66.4969 326.133 66.6951 326.199 66.8819C326.264 67.0687 326.368 67.2399 326.502 67.3849C326.637 67.5299 326.8 67.6455 326.982 67.7246C327.163 67.8037 327.359 67.8445 327.557 67.8445C327.755 67.8445 327.951 67.8037 328.132 67.7246C328.314 67.6455 328.477 67.5299 328.612 67.3849C328.747 67.2399 328.85 67.0687 328.916 66.8819C328.981 66.6951 329.008 66.4969 328.993 66.2994V60.7459H330.525V66.2994C330.552 66.6622 330.715 67.0016 330.981 67.2492C331.248 67.4969 331.598 67.6346 331.962 67.6346C332.325 67.6346 332.676 67.4969 332.942 67.2492C333.209 67.0016 333.371 66.6622 333.398 66.2994V60.7459H334.311L334.325 48.8441Z" fill="#79BBDE"/>
<path d="M345.455 48.0894C347.413 48.0894 349 46.5024 349 44.5447C349 42.587 347.413 41 345.455 41C343.497 41 341.91 42.587 341.91 44.5447C341.91 46.5024 343.497 48.0894 345.455 48.0894Z" fill="#79BBDE"/>
<path d="M350.018 48.8441H340.897V60.7459H341.811V66.2994C341.796 66.4969 341.823 66.6951 341.888 66.8819C341.954 67.0687 342.057 67.2399 342.192 67.3849C342.327 67.5299 342.49 67.6455 342.672 67.7246C342.853 67.8037 343.049 67.8445 343.247 67.8445C343.445 67.8445 343.641 67.8037 343.822 67.7246C344.004 67.6455 344.167 67.5299 344.302 67.3849C344.436 67.2399 344.54 67.0687 344.605 66.8819C344.671 66.6951 344.698 66.4969 344.683 66.2994V60.7459H346.215V66.2994C346.242 66.6622 346.404 67.0016 346.671 67.2492C346.937 67.4969 347.288 67.6346 347.651 67.6346C348.015 67.6346 348.365 67.4969 348.632 67.2492C348.898 67.0016 349.061 66.6622 349.088 66.2994V60.7459H350.018V48.8441Z" fill="#79BBDE"/>
<path d="M362.469 47.8257C364.289 47.1053 365.181 45.0457 364.46 43.2253C363.74 41.405 361.68 40.5133 359.86 41.2337C358.04 41.954 357.148 44.0136 357.868 45.834C358.589 47.6543 360.648 48.546 362.469 47.8257Z" fill="#79BBDE"/>
<path d="M365.704 48.8441H356.587V60.7459H357.5V66.2994C357.527 66.6622 357.69 67.0016 357.956 67.2492C358.222 67.4969 358.573 67.6346 358.937 67.6346C359.3 67.6346 359.651 67.4969 359.917 67.2492C360.183 67.0016 360.346 66.6622 360.373 66.2994V60.7459H361.905V66.2994C361.931 66.6622 362.094 67.0016 362.361 67.2492C362.627 67.4969 362.977 67.6346 363.341 67.6346C363.705 67.6346 364.055 67.4969 364.322 67.2492C364.588 67.0016 364.751 66.6622 364.777 66.2994V60.7459H365.691L365.704 48.8441Z" fill="#79BBDE"/>
<path d="M376.834 48.0894C378.792 48.0894 380.379 46.5024 380.379 44.5447C380.379 42.587 378.792 41 376.834 41C374.877 41 373.29 42.587 373.29 44.5447C373.29 46.5024 374.877 48.0894 376.834 48.0894Z" fill="#79BBDE"/>
<path d="M381.394 48.8441H372.276V60.7459H373.19V66.2994C373.216 66.6622 373.379 67.0016 373.646 67.2492C373.912 67.4969 374.262 67.6346 374.626 67.6346C374.99 67.6346 375.34 67.4969 375.607 67.2492C375.873 67.0016 376.036 66.6622 376.062 66.2994V60.7459H377.594V66.2994C377.621 66.6622 377.784 67.0016 378.05 67.2492C378.317 67.4969 378.667 67.6346 379.031 67.6346C379.395 67.6346 379.745 67.4969 380.011 67.2492C380.278 67.0016 380.44 66.6622 380.467 66.2994V60.7459H381.38L381.394 48.8441Z" fill="#79BBDE"/>
<path d="M392.524 48.0894C394.482 48.0894 396.069 46.5024 396.069 44.5447C396.069 42.587 394.482 41 392.524 41C390.566 41 388.979 42.587 388.979 44.5447C388.979 46.5024 390.566 48.0894 392.524 48.0894Z" fill="#79BBDE"/>
<path d="M397.084 48.8441H387.966V60.7459H388.88V66.2994C388.865 66.4969 388.892 66.6951 388.957 66.8819C389.023 67.0687 389.126 67.2399 389.261 67.3849C389.396 67.5299 389.559 67.6455 389.741 67.7246C389.922 67.8037 390.118 67.8445 390.316 67.8445C390.514 67.8445 390.71 67.8037 390.891 67.7246C391.073 67.6455 391.236 67.5299 391.371 67.3849C391.506 67.2399 391.609 67.0687 391.675 66.8819C391.74 66.6951 391.767 66.4969 391.752 66.2994V60.7459H393.284V66.2994C393.311 66.6622 393.474 67.0016 393.74 67.2492C394.006 67.4969 394.357 67.6346 394.721 67.6346C395.084 67.6346 395.435 67.4969 395.701 67.2492C395.967 67.0016 396.13 66.6622 396.157 66.2994V60.7459H397.07L397.084 48.8441Z" fill="#79BBDE"/>
<path d="M408.214 48.0894C410.171 48.0894 411.758 46.5024 411.758 44.5447C411.758 42.587 410.171 41 408.214 41C406.256 41 404.669 42.587 404.669 44.5447C404.669 46.5024 406.256 48.0894 408.214 48.0894Z" fill="#79BBDE"/>
<path d="M412.773 48.8441H403.656V60.7459H404.569V66.2994C404.555 66.4969 404.581 66.6951 404.647 66.8819C404.713 67.0687 404.816 67.2399 404.951 67.3849C405.086 67.5299 405.249 67.6455 405.43 67.7246C405.612 67.8037 405.808 67.8445 406.006 67.8445C406.204 67.8445 406.399 67.8037 406.581 67.7246C406.762 67.6455 406.926 67.5299 407.06 67.3849C407.195 67.2399 407.299 67.0687 407.364 66.8819C407.43 66.6951 407.456 66.4969 407.442 66.2994V60.7459H408.974V66.2994C409 66.6622 409.163 67.0016 409.43 67.2492C409.696 67.4969 410.046 67.6346 410.41 67.6346C410.774 67.6346 411.124 67.4969 411.391 67.2492C411.657 67.0016 411.82 66.6622 411.846 66.2994V60.7459H412.76L412.773 48.8441Z" fill="#79BBDE"/>
<path d="M424.507 48.0285C426.438 47.7067 427.742 45.8804 427.421 43.9494C427.099 42.0183 425.273 40.7137 423.342 41.0355C421.41 41.3573 420.106 43.1835 420.428 45.1146C420.749 47.0456 422.576 48.3502 424.507 48.0285Z" fill="#79BBDE"/>
<path d="M428.463 48.8441H419.342V60.7459H420.255V66.2994C420.241 66.4969 420.267 66.6951 420.333 66.8819C420.399 67.0687 420.502 67.2399 420.637 67.3849C420.772 67.5299 420.935 67.6455 421.116 67.7246C421.298 67.8037 421.494 67.8445 421.692 67.8445C421.889 67.8445 422.085 67.8037 422.267 67.7246C422.448 67.6455 422.611 67.5299 422.746 67.3849C422.881 67.2399 422.984 67.0687 423.05 66.8819C423.116 66.6951 423.142 66.4969 423.128 66.2994V60.7459H424.66V66.2994C424.686 66.6622 424.849 67.0016 425.116 67.2492C425.382 67.4969 425.732 67.6346 426.096 67.6346C426.46 67.6346 426.81 67.4969 427.077 67.2492C427.343 67.0016 427.506 66.6622 427.532 66.2994V60.7459H428.446L428.463 48.8441Z" fill="#79BBDE"/>
<path d="M439.593 48.0894C441.551 48.0894 443.138 46.5024 443.138 44.5447C443.138 42.587 441.551 41 439.593 41C437.635 41 436.048 42.587 436.048 44.5447C436.048 46.5024 437.635 48.0894 439.593 48.0894Z" fill="#E8E8EA"/>
<path d="M444.153 48.8441H435.045V60.7459H435.958V66.2994C435.944 66.4969 435.97 66.6951 436.036 66.8819C436.102 67.0687 436.205 67.2399 436.34 67.3849C436.475 67.5299 436.638 67.6455 436.819 67.7246C437.001 67.8037 437.197 67.8445 437.395 67.8445C437.593 67.8445 437.788 67.8037 437.97 67.7246C438.151 67.6455 438.315 67.5299 438.449 67.3849C438.584 67.2399 438.688 67.0687 438.753 66.8819C438.819 66.6951 438.845 66.4969 438.831 66.2994V60.7459H440.363V66.2994C440.389 66.6622 440.552 67.0016 440.819 67.2492C441.085 67.4969 441.435 67.6346 441.799 67.6346C442.163 67.6346 442.513 67.4969 442.78 67.2492C443.046 67.0016 443.209 66.6622 443.235 66.2994V60.7459H444.149L444.153 48.8441Z" fill="#E8E8EA"/>
<path d="M455.283 48.0894C457.24 48.0894 458.827 46.5024 458.827 44.5447C458.827 42.587 457.24 41 455.283 41C453.325 41 451.738 42.587 451.738 44.5447C451.738 46.5024 453.325 48.0894 455.283 48.0894Z" fill="#E8E8EA"/>
<path d="M459.842 48.8441H450.725V60.7459H451.639V66.2994C451.624 66.4969 451.65 66.6951 451.716 66.8819C451.782 67.0687 451.885 67.2399 452.02 67.3849C452.155 67.5299 452.318 67.6455 452.499 67.7246C452.681 67.8037 452.877 67.8445 453.075 67.8445C453.273 67.8445 453.469 67.8037 453.65 67.7246C453.832 67.6455 453.995 67.5299 454.13 67.3849C454.264 67.2399 454.368 67.0687 454.433 66.8819C454.499 66.6951 454.525 66.4969 454.511 66.2994V60.7459H456.043V66.2994C456.07 66.6622 456.232 67.0016 456.499 67.2492C456.765 67.4969 457.116 67.6346 457.479 67.6346C457.843 67.6346 458.193 67.4969 458.46 67.2492C458.726 67.0016 458.889 66.6622 458.916 66.2994V60.7459H459.829L459.842 48.8441Z" fill="#E8E8EA"/>
<path d="M470.972 48.0894C472.93 48.0894 474.517 46.5024 474.517 44.5447C474.517 42.587 472.93 41 470.972 41C469.015 41 467.428 42.587 467.428 44.5447C467.428 46.5024 469.015 48.0894 470.972 48.0894Z" fill="#E8E8EA"/>
<path d="M475.532 48.8441H466.415V60.7459H467.328V66.2994C467.314 66.4969 467.34 66.6951 467.406 66.8819C467.471 67.0687 467.575 67.2399 467.71 67.3849C467.844 67.5299 468.008 67.6455 468.189 67.7246C468.371 67.8037 468.566 67.8445 468.764 67.8445C468.962 67.8445 469.158 67.8037 469.34 67.7246C469.521 67.6455 469.684 67.5299 469.819 67.3849C469.954 67.2399 470.057 67.0687 470.123 66.8819C470.189 66.6951 470.215 66.4969 470.201 66.2994V60.7459H471.733V66.2994C471.718 66.4969 471.745 66.6951 471.81 66.8819C471.876 67.0687 471.979 67.2399 472.114 67.3849C472.249 67.5299 472.412 67.6455 472.594 67.7246C472.775 67.8037 472.971 67.8445 473.169 67.8445C473.367 67.8445 473.563 67.8037 473.744 67.7246C473.926 67.6455 474.089 67.5299 474.224 67.3849C474.359 67.2399 474.462 67.0687 474.528 66.8819C474.593 66.6951 474.62 66.4969 474.605 66.2994V60.7459H475.519L475.532 48.8441Z" fill="#E8E8EA"/>
<path d="M329.765 123.2C331.723 123.2 333.31 121.613 333.31 119.655C333.31 117.698 331.723 116.111 329.765 116.111C327.807 116.111 326.22 117.698 326.22 119.655C326.22 121.613 327.807 123.2 329.765 123.2Z" fill="#FF7667"/>
<path d="M334.325 123.954H325.207V135.854H326.121V141.408C326.106 141.605 326.133 141.804 326.199 141.99C326.264 142.177 326.368 142.348 326.502 142.493C326.637 142.638 326.8 142.754 326.982 142.833C327.163 142.912 327.359 142.953 327.557 142.953C327.755 142.953 327.951 142.912 328.132 142.833C328.314 142.754 328.477 142.638 328.612 142.493C328.747 142.348 328.85 142.177 328.916 141.99C328.981 141.804 329.008 141.605 328.993 141.408V135.854H330.525V141.408C330.511 141.605 330.537 141.804 330.603 141.99C330.669 142.177 330.772 142.348 330.907 142.493C331.042 142.638 331.205 142.754 331.386 142.833C331.568 142.912 331.764 142.953 331.962 142.953C332.16 142.953 332.355 142.912 332.537 142.833C332.718 142.754 332.882 142.638 333.016 142.493C333.151 142.348 333.255 142.177 333.32 141.99C333.386 141.804 333.412 141.605 333.398 141.408V135.854H334.311L334.325 123.954Z" fill="#FF7667"/>
<path d="M345.455 123.2C347.413 123.2 349 121.613 349 119.655C349 117.698 347.413 116.111 345.455 116.111C343.497 116.111 341.91 117.698 341.91 119.655C341.91 121.613 343.497 123.2 345.455 123.2Z" fill="#FF7667"/>
<path d="M350.018 123.954H340.897V135.854H341.811V141.408C341.796 141.605 341.823 141.804 341.888 141.99C341.954 142.177 342.057 142.348 342.192 142.493C342.327 142.638 342.49 142.754 342.672 142.833C342.853 142.912 343.049 142.953 343.247 142.953C343.445 142.953 343.641 142.912 343.822 142.833C344.004 142.754 344.167 142.638 344.302 142.493C344.436 142.348 344.54 142.177 344.605 141.99C344.671 141.804 344.698 141.605 344.683 141.408V135.854H346.215V141.408C346.201 141.605 346.227 141.804 346.293 141.99C346.358 142.177 346.462 142.348 346.597 142.493C346.731 142.638 346.895 142.754 347.076 142.833C347.258 142.912 347.453 142.953 347.651 142.953C347.849 142.953 348.045 142.912 348.227 142.833C348.408 142.754 348.571 142.638 348.706 142.493C348.841 142.348 348.944 142.177 349.01 141.99C349.076 141.804 349.102 141.605 349.088 141.408V135.854H350.018V123.954Z" fill="#FF7667"/>
<path d="M362.473 122.935C364.293 122.215 365.185 120.155 364.465 118.335C363.744 116.514 361.685 115.623 359.864 116.343C358.044 117.063 357.152 119.123 357.873 120.943C358.593 122.764 360.653 123.655 362.473 122.935Z" fill="#FF7667"/>
<path d="M365.704 123.954H356.587V135.854H357.5V141.408C357.486 141.605 357.512 141.804 357.578 141.99C357.644 142.177 357.747 142.348 357.882 142.493C358.017 142.638 358.18 142.754 358.361 142.833C358.543 142.912 358.739 142.953 358.937 142.953C359.135 142.953 359.33 142.912 359.512 142.833C359.693 142.754 359.857 142.638 359.991 142.493C360.126 142.348 360.23 142.177 360.295 141.99C360.361 141.804 360.387 141.605 360.373 141.408V135.854H361.905V141.408C361.89 141.605 361.917 141.804 361.982 141.99C362.048 142.177 362.152 142.348 362.286 142.493C362.421 142.638 362.584 142.754 362.766 142.833C362.947 142.912 363.143 142.953 363.341 142.953C363.539 142.953 363.735 142.912 363.916 142.833C364.098 142.754 364.261 142.638 364.396 142.493C364.531 142.348 364.634 142.177 364.7 141.99C364.765 141.804 364.792 141.605 364.777 141.408V135.854H365.691L365.704 123.954Z" fill="#FF7667"/>
<path d="M376.834 123.2C378.792 123.2 380.379 121.613 380.379 119.655C380.379 117.698 378.792 116.111 376.834 116.111C374.877 116.111 373.29 117.698 373.29 119.655C373.29 121.613 374.877 123.2 376.834 123.2Z" fill="#FF7667"/>
<path d="M381.394 123.954H372.276V135.854H373.19V141.408C373.176 141.605 373.202 141.804 373.268 141.99C373.333 142.177 373.437 142.348 373.571 142.493C373.706 142.638 373.869 142.754 374.051 142.833C374.232 142.912 374.428 142.953 374.626 142.953C374.824 142.953 375.02 142.912 375.201 142.833C375.383 142.754 375.546 142.638 375.681 142.493C375.816 142.348 375.919 142.177 375.985 141.99C376.05 141.804 376.077 141.605 376.062 141.408V135.854H377.594V141.408C377.621 141.771 377.784 142.11 378.05 142.358C378.317 142.605 378.667 142.743 379.031 142.743C379.395 142.743 379.745 142.605 380.011 142.358C380.278 142.11 380.44 141.771 380.467 141.408V135.854H381.38L381.394 123.954Z" fill="#FF7667"/>
<path d="M392.524 123.2C394.482 123.2 396.069 121.613 396.069 119.655C396.069 117.698 394.482 116.111 392.524 116.111C390.566 116.111 388.979 117.698 388.979 119.655C388.979 121.613 390.566 123.2 392.524 123.2Z" fill="#FF7667"/>
<path d="M397.084 123.954H387.966V135.854H388.88V141.408C388.865 141.605 388.892 141.804 388.957 141.99C389.023 142.177 389.126 142.348 389.261 142.493C389.396 142.638 389.559 142.754 389.741 142.833C389.922 142.912 390.118 142.953 390.316 142.953C390.514 142.953 390.71 142.912 390.891 142.833C391.073 142.754 391.236 142.638 391.371 142.493C391.506 142.348 391.609 142.177 391.675 141.99C391.74 141.804 391.767 141.605 391.752 141.408V135.854H393.284V141.408C393.27 141.605 393.296 141.804 393.362 141.99C393.428 142.177 393.531 142.348 393.666 142.493C393.801 142.638 393.964 142.754 394.145 142.833C394.327 142.912 394.523 142.953 394.721 142.953C394.918 142.953 395.114 142.912 395.296 142.833C395.477 142.754 395.64 142.638 395.775 142.493C395.91 142.348 396.013 142.177 396.079 141.99C396.145 141.804 396.171 141.605 396.157 141.408V135.854H397.07L397.084 123.954Z" fill="#FF7667"/>
<path d="M408.214 123.2C410.171 123.2 411.758 121.613 411.758 119.655C411.758 117.698 410.171 116.111 408.214 116.111C406.256 116.111 404.669 117.698 404.669 119.655C404.669 121.613 406.256 123.2 408.214 123.2Z" fill="#E8E8EA"/>
<path d="M412.773 123.954H403.656V135.854H404.569V141.408C404.555 141.605 404.581 141.804 404.647 141.99C404.713 142.177 404.816 142.348 404.951 142.493C405.086 142.638 405.249 142.754 405.43 142.833C405.612 142.912 405.808 142.953 406.006 142.953C406.204 142.953 406.399 142.912 406.581 142.833C406.762 142.754 406.926 142.638 407.06 142.493C407.195 142.348 407.299 142.177 407.364 141.99C407.43 141.804 407.456 141.605 407.442 141.408V135.854H408.974V141.408C408.96 141.605 408.986 141.804 409.052 141.99C409.117 142.177 409.221 142.348 409.355 142.493C409.49 142.638 409.653 142.754 409.835 142.833C410.016 142.912 410.212 142.953 410.41 142.953C410.608 142.953 410.804 142.912 410.985 142.833C411.167 142.754 411.33 142.638 411.465 142.493C411.6 142.348 411.703 142.177 411.769 141.99C411.834 141.804 411.861 141.605 411.846 141.408V135.854H412.76L412.773 123.954Z" fill="#E8E8EA"/>
<path d="M424.512 123.138C426.443 122.816 427.747 120.99 427.425 119.059C427.104 117.128 425.277 115.823 423.346 116.145C421.415 116.467 420.111 118.293 420.432 120.224C420.754 122.155 422.58 123.46 424.512 123.138Z" fill="#E8E8EA"/>
<path d="M428.463 123.954H419.342V135.854H420.255V141.408C420.241 141.605 420.267 141.804 420.333 141.99C420.399 142.177 420.502 142.348 420.637 142.493C420.772 142.638 420.935 142.754 421.116 142.833C421.298 142.912 421.494 142.953 421.692 142.953C421.889 142.953 422.085 142.912 422.267 142.833C422.448 142.754 422.611 142.638 422.746 142.493C422.881 142.348 422.984 142.177 423.05 141.99C423.116 141.804 423.142 141.605 423.128 141.408V135.854H424.66V141.408C424.645 141.605 424.672 141.804 424.737 141.99C424.803 142.177 424.907 142.348 425.041 142.493C425.176 142.638 425.339 142.754 425.521 142.833C425.702 142.912 425.898 142.953 426.096 142.953C426.294 142.953 426.49 142.912 426.671 142.833C426.853 142.754 427.016 142.638 427.151 142.493C427.286 142.348 427.389 142.177 427.455 141.99C427.52 141.804 427.547 141.605 427.532 141.408V135.854H428.446L428.463 123.954Z" fill="#E8E8EA"/>
<path d="M439.593 123.2C441.551 123.2 443.138 121.613 443.138 119.655C443.138 117.698 441.551 116.111 439.593 116.111C437.635 116.111 436.048 117.698 436.048 119.655C436.048 121.613 437.635 123.2 439.593 123.2Z" fill="#E8E8EA"/>
<path d="M444.153 123.954H435.045V135.854H435.958V141.408C435.944 141.605 435.97 141.804 436.036 141.99C436.102 142.177 436.205 142.348 436.34 142.493C436.475 142.638 436.638 142.754 436.819 142.833C437.001 142.912 437.197 142.953 437.395 142.953C437.593 142.953 437.788 142.912 437.97 142.833C438.151 142.754 438.315 142.638 438.449 142.493C438.584 142.348 438.688 142.177 438.753 141.99C438.819 141.804 438.845 141.605 438.831 141.408V135.854H440.363V141.408C440.348 141.605 440.375 141.804 440.441 141.99C440.506 142.177 440.61 142.348 440.744 142.493C440.879 142.638 441.042 142.754 441.224 142.833C441.405 142.912 441.601 142.953 441.799 142.953C441.997 142.953 442.193 142.912 442.374 142.833C442.556 142.754 442.719 142.638 442.854 142.493C442.989 142.348 443.092 142.177 443.158 141.99C443.223 141.804 443.25 141.605 443.235 141.408V135.854H444.149L444.153 123.954Z" fill="#E8E8EA"/>
<path d="M455.283 123.2C457.24 123.2 458.827 121.613 458.827 119.655C458.827 117.698 457.24 116.111 455.283 116.111C453.325 116.111 451.738 117.698 451.738 119.655C451.738 121.613 453.325 123.2 455.283 123.2Z" fill="#E8E8EA"/>
<path d="M459.842 123.954H450.725V135.854H451.639V141.408C451.624 141.605 451.65 141.804 451.716 141.99C451.782 142.177 451.885 142.348 452.02 142.493C452.155 142.638 452.318 142.754 452.499 142.833C452.681 142.912 452.877 142.953 453.075 142.953C453.273 142.953 453.469 142.912 453.65 142.833C453.832 142.754 453.995 142.638 454.13 142.493C454.264 142.348 454.368 142.177 454.433 141.99C454.499 141.804 454.525 141.605 454.511 141.408V135.854H456.043V141.408C456.029 141.605 456.055 141.804 456.121 141.99C456.186 142.177 456.29 142.348 456.425 142.493C456.559 142.638 456.723 142.754 456.904 142.833C457.085 142.912 457.281 142.953 457.479 142.953C457.677 142.953 457.873 142.912 458.055 142.833C458.236 142.754 458.399 142.638 458.534 142.493C458.669 142.348 458.772 142.177 458.838 141.99C458.904 141.804 458.93 141.605 458.916 141.408V135.854H459.829L459.842 123.954Z" fill="#E8E8EA"/>
<path d="M470.972 123.2C472.93 123.2 474.517 121.613 474.517 119.655C474.517 117.698 472.93 116.111 470.972 116.111C469.015 116.111 467.428 117.698 467.428 119.655C467.428 121.613 469.015 123.2 470.972 123.2Z" fill="#E8E8EA"/>
<path d="M475.532 123.954H466.415V135.854H467.328V141.408C467.314 141.605 467.34 141.804 467.406 141.99C467.471 142.177 467.575 142.348 467.71 142.493C467.844 142.638 468.008 142.754 468.189 142.833C468.371 142.912 468.566 142.953 468.764 142.953C468.962 142.953 469.158 142.912 469.34 142.833C469.521 142.754 469.684 142.638 469.819 142.493C469.954 142.348 470.057 142.177 470.123 141.99C470.189 141.804 470.215 141.605 470.201 141.408V135.854H471.733V141.408C471.718 141.605 471.745 141.804 471.81 141.99C471.876 142.177 471.979 142.348 472.114 142.493C472.249 142.638 472.412 142.754 472.594 142.833C472.775 142.912 472.971 142.953 473.169 142.953C473.367 142.953 473.563 142.912 473.744 142.833C473.926 142.754 474.089 142.638 474.224 142.493C474.359 142.348 474.462 142.177 474.528 141.99C474.593 141.804 474.62 141.605 474.605 141.408V135.854H475.519L475.532 123.954Z" fill="#E8E8EA"/>
<path d="M329.765 85.6447C331.723 85.6447 333.31 84.0577 333.31 82.1C333.31 80.1423 331.723 78.5553 329.765 78.5553C327.807 78.5553 326.22 80.1423 326.22 82.1C326.22 84.0577 327.807 85.6447 329.765 85.6447Z" fill="#0288BB"/>
<path d="M334.325 86.3991H325.207V98.299H326.121V103.853C326.106 104.05 326.133 104.248 326.199 104.435C326.264 104.622 326.368 104.793 326.502 104.938C326.637 105.083 326.8 105.199 326.982 105.278C327.163 105.357 327.359 105.398 327.557 105.398C327.755 105.398 327.951 105.357 328.132 105.278C328.314 105.199 328.477 105.083 328.612 104.938C328.747 104.793 328.85 104.622 328.916 104.435C328.981 104.248 329.008 104.05 328.993 103.853V98.299H330.525V103.853C330.552 104.215 330.715 104.555 330.981 104.802C331.248 105.05 331.598 105.188 331.962 105.188C332.325 105.188 332.676 105.05 332.942 104.802C333.209 104.555 333.371 104.215 333.398 103.853V98.299H334.311L334.325 86.3991Z" fill="#0288BB"/>
<path d="M345.455 85.6447C347.413 85.6447 349 84.0577 349 82.1C349 80.1423 347.413 78.5553 345.455 78.5553C343.497 78.5553 341.91 80.1423 341.91 82.1C341.91 84.0577 343.497 85.6447 345.455 85.6447Z" fill="#0288BB"/>
<path d="M350.018 86.3991H340.897V98.299H341.811V103.853C341.796 104.05 341.823 104.248 341.888 104.435C341.954 104.622 342.057 104.793 342.192 104.938C342.327 105.083 342.49 105.199 342.672 105.278C342.853 105.357 343.049 105.398 343.247 105.398C343.445 105.398 343.641 105.357 343.822 105.278C344.004 105.199 344.167 105.083 344.302 104.938C344.436 104.793 344.54 104.622 344.605 104.435C344.671 104.248 344.698 104.05 344.683 103.853V98.299H346.215V103.853C346.242 104.215 346.404 104.555 346.671 104.802C346.937 105.05 347.288 105.188 347.651 105.188C348.015 105.188 348.365 105.05 348.632 104.802C348.898 104.555 349.061 104.215 349.088 103.853V98.299H350.018V86.3991Z" fill="#0288BB"/>
<path d="M362.471 85.3813C364.291 84.6609 365.183 82.6013 364.463 80.7809C363.742 78.9606 361.683 78.0689 359.862 78.7893C358.042 79.5096 357.15 81.5692 357.871 83.3896C358.591 85.2099 360.651 86.1016 362.471 85.3813Z" fill="#0288BB"/>
<path d="M365.704 86.3991H356.587V98.299H357.5V103.853C357.527 104.215 357.69 104.555 357.956 104.802C358.222 105.05 358.573 105.188 358.937 105.188C359.3 105.188 359.651 105.05 359.917 104.802C360.183 104.555 360.346 104.215 360.373 103.853V98.299H361.905V103.853C361.931 104.215 362.094 104.555 362.361 104.802C362.627 105.05 362.977 105.188 363.341 105.188C363.705 105.188 364.055 105.05 364.322 104.802C364.588 104.555 364.751 104.215 364.777 103.853V98.299H365.691L365.704 86.3991Z" fill="#0288BB"/>
<path d="M376.834 85.6447C378.792 85.6447 380.379 84.0577 380.379 82.1C380.379 80.1423 378.792 78.5553 376.834 78.5553C374.877 78.5553 373.29 80.1423 373.29 82.1C373.29 84.0577 374.877 85.6447 376.834 85.6447Z" fill="#E8E8EA"/>
<path d="M381.394 86.3991H372.276V98.299H373.19V103.853C373.176 104.05 373.202 104.248 373.268 104.435C373.333 104.622 373.437 104.793 373.571 104.938C373.706 105.083 373.869 105.199 374.051 105.278C374.232 105.357 374.428 105.398 374.626 105.398C374.824 105.398 375.02 105.357 375.201 105.278C375.383 105.199 375.546 105.083 375.681 104.938C375.816 104.793 375.919 104.622 375.985 104.435C376.05 104.248 376.077 104.05 376.062 103.853V98.299H377.594V103.853C377.621 104.215 377.784 104.555 378.05 104.802C378.317 105.05 378.667 105.188 379.031 105.188C379.395 105.188 379.745 105.05 380.011 104.802C380.278 104.555 380.44 104.215 380.467 103.853V98.299H381.38L381.394 86.3991Z" fill="#E8E8EA"/>
<path d="M392.524 85.6447C394.482 85.6447 396.069 84.0577 396.069 82.1C396.069 80.1423 394.482 78.5553 392.524 78.5553C390.566 78.5553 388.979 80.1423 388.979 82.1C388.979 84.0577 390.566 85.6447 392.524 85.6447Z" fill="#E8E8EA"/>
<path d="M397.084 86.3991H387.966V98.299H388.88V103.853C388.865 104.05 388.892 104.248 388.957 104.435C389.023 104.622 389.126 104.793 389.261 104.938C389.396 105.083 389.559 105.199 389.741 105.278C389.922 105.357 390.118 105.398 390.316 105.398C390.514 105.398 390.71 105.357 390.891 105.278C391.073 105.199 391.236 105.083 391.371 104.938C391.506 104.793 391.609 104.622 391.675 104.435C391.74 104.248 391.767 104.05 391.752 103.853V98.299H393.284V103.853C393.27 104.05 393.296 104.248 393.362 104.435C393.428 104.622 393.531 104.793 393.666 104.938C393.801 105.083 393.964 105.199 394.145 105.278C394.327 105.357 394.523 105.398 394.721 105.398C394.918 105.398 395.114 105.357 395.296 105.278C395.477 105.199 395.64 105.083 395.775 104.938C395.91 104.793 396.013 104.622 396.079 104.435C396.145 104.248 396.171 104.05 396.157 103.853V98.299H397.07L397.084 86.3991Z" fill="#E8E8EA"/>
<path d="M408.214 85.6447C410.171 85.6447 411.758 84.0577 411.758 82.1C411.758 80.1423 410.171 78.5553 408.214 78.5553C406.256 78.5553 404.669 80.1423 404.669 82.1C404.669 84.0577 406.256 85.6447 408.214 85.6447Z" fill="#E8E8EA"/>
<path d="M412.773 86.3991H403.656V98.299H404.569V103.853C404.555 104.05 404.581 104.248 404.647 104.435C404.713 104.622 404.816 104.793 404.951 104.938C405.086 105.083 405.249 105.199 405.43 105.278C405.612 105.357 405.808 105.398 406.006 105.398C406.204 105.398 406.399 105.357 406.581 105.278C406.762 105.199 406.926 105.083 407.06 104.938C407.195 104.793 407.299 104.622 407.364 104.435C407.43 104.248 407.456 104.05 407.442 103.853V98.299H408.974V103.853C409 104.215 409.163 104.555 409.43 104.802C409.696 105.05 410.046 105.188 410.41 105.188C410.774 105.188 411.124 105.05 411.391 104.802C411.657 104.555 411.82 104.215 411.846 103.853V98.299H412.76L412.773 86.3991Z" fill="#E8E8EA"/>
<path d="M424.509 85.5822C426.44 85.2604 427.745 83.4342 427.423 81.5031C427.101 79.572 425.275 78.2675 423.344 78.5892C421.413 78.911 420.108 80.7372 420.43 82.6683C420.752 84.5994 422.578 85.9039 424.509 85.5822Z" fill="#E8E8EA"/>
<path d="M428.463 86.3991H419.342V98.299H420.255V103.853C420.241 104.05 420.267 104.248 420.333 104.435C420.399 104.622 420.502 104.793 420.637 104.938C420.772 105.083 420.935 105.199 421.116 105.278C421.298 105.357 421.494 105.398 421.692 105.398C421.889 105.398 422.085 105.357 422.267 105.278C422.448 105.199 422.611 105.083 422.746 104.938C422.881 104.793 422.984 104.622 423.05 104.435C423.116 104.248 423.142 104.05 423.128 103.853V98.299H424.66V103.853C424.686 104.215 424.849 104.555 425.116 104.802C425.382 105.05 425.732 105.188 426.096 105.188C426.46 105.188 426.81 105.05 427.077 104.802C427.343 104.555 427.506 104.215 427.532 103.853V98.299H428.446L428.463 86.3991Z" fill="#E8E8EA"/>
<path d="M439.593 85.6447C441.551 85.6447 443.138 84.0577 443.138 82.1C443.138 80.1423 441.551 78.5553 439.593 78.5553C437.635 78.5553 436.048 80.1423 436.048 82.1C436.048 84.0577 437.635 85.6447 439.593 85.6447Z" fill="#E8E8EA"/>
<path d="M444.153 86.3991H435.045V98.299H435.958V103.853C435.944 104.05 435.97 104.248 436.036 104.435C436.102 104.622 436.205 104.793 436.34 104.938C436.475 105.083 436.638 105.199 436.819 105.278C437.001 105.357 437.197 105.398 437.395 105.398C437.593 105.398 437.788 105.357 437.97 105.278C438.151 105.199 438.315 105.083 438.449 104.938C438.584 104.793 438.688 104.622 438.753 104.435C438.819 104.248 438.845 104.05 438.831 103.853V98.299H440.363V103.853C440.348 104.05 440.375 104.248 440.441 104.435C440.506 104.622 440.61 104.793 440.744 104.938C440.879 105.083 441.042 105.199 441.224 105.278C441.405 105.357 441.601 105.398 441.799 105.398C441.997 105.398 442.193 105.357 442.374 105.278C442.556 105.199 442.719 105.083 442.854 104.938C442.989 104.793 443.092 104.622 443.158 104.435C443.223 104.248 443.25 104.05 443.235 103.853V98.299H444.149L444.153 86.3991Z" fill="#E8E8EA"/>
<path d="M455.283 85.6447C457.24 85.6447 458.827 84.0577 458.827 82.1C458.827 80.1423 457.24 78.5553 455.283 78.5553C453.325 78.5553 451.738 80.1423 451.738 82.1C451.738 84.0577 453.325 85.6447 455.283 85.6447Z" fill="#E8E8EA"/>
<path d="M459.842 86.3991H450.725V98.299H451.639V103.853C451.624 104.05 451.65 104.248 451.716 104.435C451.782 104.622 451.885 104.793 452.02 104.938C452.155 105.083 452.318 105.199 452.499 105.278C452.681 105.357 452.877 105.398 453.075 105.398C453.273 105.398 453.469 105.357 453.65 105.278C453.832 105.199 453.995 105.083 454.13 104.938C454.264 104.793 454.368 104.622 454.433 104.435C454.499 104.248 454.525 104.05 454.511 103.853V98.299H456.043V103.853C456.07 104.215 456.232 104.555 456.499 104.802C456.765 105.05 457.116 105.188 457.479 105.188C457.843 105.188 458.193 105.05 458.46 104.802C458.726 104.555 458.889 104.215 458.916 103.853V98.299H459.829L459.842 86.3991Z" fill="#E8E8EA"/>
<path d="M470.972 85.6447C472.93 85.6447 474.517 84.0577 474.517 82.1C474.517 80.1423 472.93 78.5553 470.972 78.5553C469.015 78.5553 467.428 80.1423 467.428 82.1C467.428 84.0577 469.015 85.6447 470.972 85.6447Z" fill="#E8E8EA"/>
<path d="M475.532 86.3991H466.415V98.299H467.328V103.853C467.314 104.05 467.34 104.248 467.406 104.435C467.471 104.622 467.575 104.793 467.71 104.938C467.844 105.083 468.008 105.199 468.189 105.278C468.371 105.357 468.566 105.398 468.764 105.398C468.962 105.398 469.158 105.357 469.34 105.278C469.521 105.199 469.684 105.083 469.819 104.938C469.954 104.793 470.057 104.622 470.123 104.435C470.189 104.248 470.215 104.05 470.201 103.853V98.299H471.733V103.853C471.718 104.05 471.745 104.248 471.81 104.435C471.876 104.622 471.979 104.793 472.114 104.938C472.249 105.083 472.412 105.199 472.594 105.278C472.775 105.357 472.971 105.398 473.169 105.398C473.367 105.398 473.563 105.357 473.744 105.278C473.926 105.199 474.089 105.083 474.224 104.938C474.359 104.793 474.462 104.622 474.528 104.435C474.593 104.248 474.62 104.05 474.605 103.853V98.299H475.519L475.532 86.3991Z" fill="#E8E8EA"/>
<path d="M373.29 82.0942C373.288 83.0345 373.66 83.9369 374.324 84.603C374.987 85.2691 375.888 85.6445 376.829 85.6465V78.561C375.892 78.563 374.993 78.9357 374.33 79.5977C373.667 80.2597 373.293 81.1572 373.29 82.0942Z" fill="#0288BB"/>
<path d="M372.276 86.3991V98.299H373.19V103.853C373.176 104.05 373.202 104.248 373.268 104.435C373.333 104.622 373.437 104.793 373.571 104.938C373.706 105.083 373.869 105.199 374.051 105.278C374.232 105.357 374.428 105.398 374.626 105.398C374.824 105.398 375.02 105.357 375.201 105.278C375.383 105.199 375.546 105.083 375.681 104.938C375.816 104.793 375.919 104.622 375.985 104.435C376.05 104.248 376.077 104.05 376.062 103.853V98.299H376.828V86.3991H372.276Z" fill="#0288BB"/>
<path d="M300.054 50.33C298.943 52.0056 297.564 54.5679 297.564 57.157C297.564 57.3907 297.564 57.4883 297.576 57.7852H295.936C295.936 55.0735 297.156 52.4231 298.451 50.7111H295.004V49.3323H300.058L300.054 50.33Z" fill="#6C6B71"/>
<path d="M305.59 53.5605C305.59 57.0075 304.665 57.9344 303.15 57.9344C301.636 57.9344 300.711 56.998 300.711 53.5605C300.711 50.1231 301.622 49.1847 303.15 49.1847C304.678 49.1847 305.59 50.1135 305.59 53.5605ZM302.25 53.1277V53.9914C302.25 55.8394 302.398 56.6897 303.15 56.6897C303.903 56.6897 304.05 55.8394 304.05 53.9914V53.1277C304.05 51.2797 303.901 50.4295 303.15 50.4295C302.4 50.4295 302.246 51.2778 302.246 53.1258L302.25 53.1277Z" fill="#6C6B71"/>
<path d="M309.788 51.4138C309.788 53.1258 309.148 53.6314 308.087 53.6314C307.026 53.6314 306.387 53.1144 306.387 51.4138C306.387 49.7133 307.028 49.1828 308.087 49.1828C309.146 49.1828 309.788 49.7018 309.788 51.4138ZM308.409 57.7851H307.361L312.511 49.3322H313.572L308.409 57.7851ZM307.484 51.3142V51.5057C307.484 52.2334 307.595 52.7371 308.087 52.7371C308.579 52.7371 308.692 52.2334 308.692 51.5057V51.3142C308.692 50.5884 308.581 50.0829 308.087 50.0829C307.593 50.0829 307.484 50.5884 307.484 51.3142ZM314.52 55.7188C314.52 57.4308 313.88 57.9364 312.819 57.9364C311.758 57.9364 311.119 57.4193 311.119 55.7188C311.119 54.0182 311.76 53.4878 312.819 53.4878C313.878 53.4878 314.52 54.001 314.52 55.7149V55.7188ZM312.222 55.6192V55.8107C312.222 56.5365 312.333 57.042 312.825 57.042C313.317 57.042 313.43 56.5365 313.43 55.8107V55.6192C313.43 54.8934 313.319 54.3878 312.825 54.3878C312.331 54.3878 312.216 54.8896 312.216 55.6153L312.222 55.6192Z" fill="#6C6B71"/>
<path d="M299.818 89.0554C299.839 89.4439 299.747 89.8302 299.553 90.1672C299.358 90.5041 299.07 90.7772 298.723 90.9532V91.003C299.437 91.273 299.968 91.9509 299.968 93.0731C299.968 94.5764 298.956 95.4879 297.526 95.4879C295.913 95.4879 295.025 94.4902 295.025 92.9486V92.7265H296.557V92.9869C296.557 93.7874 296.877 94.2431 297.493 94.2431C298.047 94.2431 298.416 93.8487 298.416 92.9984C298.416 91.9394 297.936 91.6579 297.407 91.6579H296.999V90.4131H297.43C297.899 90.4131 298.269 89.9823 298.269 89.1071C298.269 88.3181 297.974 87.9734 297.503 87.9734C297.032 87.9734 296.714 88.3679 296.714 89.1569V89.3905H295.172V89.0458C295.172 87.6402 296.13 86.7286 297.49 86.7286C298.887 86.7382 299.818 87.5521 299.818 89.0554Z" fill="#6C6B71"/>
<path d="M305.314 88.2664H302.526L302.403 90.2638C302.742 89.9838 303.17 89.835 303.61 89.8444C304.759 89.8444 305.669 90.7196 305.669 92.5791C305.669 94.4385 304.721 95.488 303.192 95.488C301.664 95.488 300.703 94.4404 300.703 92.715H302.235C302.235 93.6515 302.58 94.247 303.192 94.247C303.767 94.247 304.14 93.6725 304.14 92.5714C304.14 91.5852 303.771 91.0394 303.279 91.0394C302.823 91.0394 302.551 91.3477 302.367 91.7556L300.937 91.5641L301.224 86.8819H305.314V88.2664Z" fill="#6C6B71"/>
<path d="M309.788 88.9691C309.788 90.6811 309.148 91.1867 308.087 91.1867C307.026 91.1867 306.387 90.6696 306.387 88.9691C306.387 87.2685 307.028 86.7381 308.087 86.7381C309.146 86.7381 309.788 87.2647 309.788 88.9691ZM308.409 95.3403H307.361L312.511 86.8817H313.572L308.409 95.3403ZM307.484 88.8695V89.061C307.484 89.7887 307.595 90.2924 308.087 90.2924C308.579 90.2924 308.692 89.7887 308.692 89.061V88.8695C308.692 88.1437 308.581 87.6381 308.087 87.6381C307.593 87.6381 307.484 88.1437 307.484 88.8695ZM314.52 93.274C314.52 94.986 313.88 95.4916 312.819 95.4916C311.758 95.4916 311.119 94.9745 311.119 93.274C311.119 91.5735 311.76 91.043 312.819 91.043C313.878 91.043 314.52 91.5563 314.52 93.2702V93.274ZM312.222 93.1745V93.366C312.222 94.0918 312.333 94.5973 312.825 94.5973C313.317 94.5973 313.43 94.0918 313.43 93.366V93.1745C313.43 92.4468 313.319 91.9431 312.825 91.9431C312.331 91.9431 312.216 92.4353 312.216 93.1706L312.222 93.1745Z" fill="#6C6B71"/>
<path d="M299.696 125.822H296.911L296.787 127.817C297.127 127.539 297.555 127.391 297.995 127.4C299.144 127.4 300.054 128.275 300.054 130.134C300.054 131.994 299.096 133.043 297.576 133.043C296.055 133.043 295.086 131.996 295.086 130.27H296.618C296.618 131.207 296.963 131.802 297.576 131.802C298.15 131.802 298.533 131.228 298.533 130.127C298.533 129.14 298.164 128.595 297.67 128.595C297.214 128.595 296.944 128.903 296.758 129.311L295.329 129.119L295.613 124.437H299.703L299.696 125.822Z" fill="#6C6B71"/>
<path d="M305.59 128.669C305.59 132.107 304.665 133.043 303.15 133.043C301.636 133.043 300.711 132.107 300.711 128.669C300.711 125.232 301.622 124.293 303.15 124.293C304.678 124.293 305.59 125.23 305.59 128.669ZM302.246 128.246V129.11C302.246 130.958 302.394 131.808 303.146 131.808C303.899 131.808 304.047 130.958 304.047 129.11V128.246C304.047 126.398 303.897 125.548 303.146 125.548C302.396 125.548 302.246 126.388 302.246 128.246Z" fill="#6C6B71"/>
<path d="M309.788 126.523C309.788 128.235 309.148 128.74 308.087 128.74C307.026 128.74 306.387 128.223 306.387 126.523C306.387 124.822 307.028 124.292 308.087 124.292C309.146 124.292 309.788 124.811 309.788 126.523ZM308.409 132.894H307.361L312.511 124.439H313.572L308.409 132.894ZM307.484 126.423V126.615C307.484 127.34 307.595 127.846 308.087 127.846C308.579 127.846 308.692 127.34 308.692 126.615V126.423C308.692 125.697 308.581 125.192 308.087 125.192C307.593 125.192 307.484 125.699 307.484 126.425V126.423ZM314.52 130.828C314.52 132.542 313.88 133.047 312.819 133.047C311.758 133.047 311.119 132.528 311.119 130.828C311.119 129.127 311.76 128.599 312.819 128.599C313.878 128.599 314.52 129.112 314.52 130.824V130.828ZM312.222 130.73V130.922C312.222 131.647 312.333 132.153 312.825 132.153C313.317 132.153 313.43 131.647 313.43 130.922V130.73C313.43 130.002 313.319 129.499 312.825 129.499C312.331 129.499 312.216 129.999 312.216 130.736L312.222 130.73Z" fill="#6C6B71"/>
</g>
</g>
<defs>
<linearGradient id="paint0_linear_16164_1251" x1="27.3845" y1="44.3215" x2="49.2102" y2="22.4958" gradientUnits="userSpaceOnUse">
<stop stop-color="#075799"/>
<stop offset="0.36" stop-color="#0D83D3"/>
<stop offset="1" stop-color="#13D6D6"/>
</linearGradient>
<linearGradient id="paint1_linear_16164_1251" x1="27.1777" y1="44.1172" x2="49.0034" y2="22.2891" gradientUnits="userSpaceOnUse">
<stop stop-color="#075799"/>
<stop offset="0.36" stop-color="#0D83D3"/>
<stop offset="1" stop-color="#13D6D6"/>
</linearGradient>
<linearGradient id="paint2_linear_16164_1251" x1="28.5644" y1="42.7307" x2="49.13" y2="22.1651" gradientUnits="userSpaceOnUse">
<stop stop-color="#075799"/>
<stop offset="0.36" stop-color="#0D83D3"/>
<stop offset="1" stop-color="#13D6D6"/>
</linearGradient>
<linearGradient id="paint3_linear_16164_1251" x1="41.2798" y1="29.7623" x2="41.2798" y2="38.8799" gradientUnits="userSpaceOnUse">
<stop stop-color="#075799"/>
<stop offset="1" stop-color="white"/>
</linearGradient>
<linearGradient id="paint4_linear_16164_1251" x1="25.6038" y1="41.8937" x2="24.5043" y2="33.1021" gradientUnits="userSpaceOnUse">
<stop stop-color="#075799"/>
<stop offset="1" stop-color="white"/>
</linearGradient>
<clipPath id="clip0_16164_1251">
<rect y="0.522705" width="503" height="323.261" rx="21.4613" fill="white"/>
</clipPath>
<clipPath id="clip1_16164_1251">
<rect width="39.6035" height="24.144" fill="white" transform="translate(15.0729 16.6187)"/>
</clipPath>
<clipPath id="clip2_16164_1251">
<rect width="183.374" height="114.37" fill="white" transform="translate(87 31)"/>
</clipPath>
<clipPath id="clip3_16164_1251">
<rect width="396" height="100.761" fill="white" transform="translate(88 191)"/>
</clipPath>
<clipPath id="clip4_16164_1251">
<rect width="180.53" height="101.85" fill="white" transform="translate(295 41)"/>
</clipPath>
</defs>
</svg>
