<svg width="503" height="324" viewBox="0 0 503 324" fill="none" xmlns="http://www.w3.org/2000/svg">
<g clip-path="url(#clip0_16164_1141)">
<rect y="0.261353" width="503" height="323.261" rx="21.4613" fill="white"/>
<rect y="0.261353" width="68.408" height="323.261" fill="#A9D4F1" fill-opacity="0.5"/>
<g clip-path="url(#clip1_16164_1141)">
<path d="M49.2613 36.3244V18.9918L38.6866 29.5762C38.4113 29.8516 38.0843 30.0701 37.7245 30.2191C37.3647 30.3681 36.9791 30.4449 36.5897 30.4449C36.2002 30.4449 35.8146 30.3681 35.4548 30.2191C35.095 30.0701 34.7681 29.8516 34.4927 29.5762L32.3447 27.4282C32.0696 27.1529 31.7428 26.9345 31.3833 26.7855C31.0237 26.6365 30.6382 26.5598 30.249 26.5598C29.8597 26.5598 29.4743 26.6365 29.1147 26.7855C28.7551 26.9345 28.4284 27.1529 28.1533 27.4282L15.0729 40.5012H45.0845C46.1922 40.5012 47.2546 40.0612 48.038 39.2779C48.8213 38.4946 49.2613 37.4322 49.2613 36.3244Z" fill="url(#paint0_linear_16164_1141)"/>
<path d="M36.6528 37.1588L52.9734 20.8382L50.1054 18.1477L33.8748 34.3783L36.6528 37.1588Z" fill="url(#paint1_linear_16164_1141)"/>
<path d="M49.3367 16.3573H53.9855C54.1687 16.3573 54.3445 16.4301 54.474 16.5597C54.6036 16.6892 54.6764 16.8649 54.6764 17.0482V21.697C54.6761 21.8335 54.6353 21.9669 54.5592 22.0803C54.4831 22.1937 54.3751 22.282 54.2489 22.3341C54.1226 22.3862 53.9838 22.3996 53.8499 22.3728C53.716 22.346 53.593 22.2801 53.4965 22.1835L48.8478 17.5371C48.751 17.4405 48.685 17.3173 48.6583 17.1832C48.6316 17.0491 48.6452 16.91 48.6976 16.7837C48.75 16.6573 48.8386 16.5494 48.9524 16.4735C49.0662 16.3975 49.1999 16.3571 49.3367 16.3573Z" fill="url(#paint2_linear_16164_1141)"/>
<path style="mix-blend-mode:multiply" d="M49.2612 36.3245V24.5359L33.2982 40.5014H45.0844C46.1922 40.5014 47.2545 40.0613 48.0379 39.278C48.8212 38.4947 49.2612 37.4323 49.2612 36.3245Z" fill="url(#paint3_linear_16164_1141)"/>
<path style="mix-blend-mode:multiply" d="M32.3374 27.4281C32.0623 27.1528 31.7355 26.9344 31.376 26.7854C31.0164 26.6364 30.6309 26.5597 30.2417 26.5597C29.8524 26.5597 29.467 26.6364 29.1074 26.7854C28.7478 26.9344 28.4211 27.1528 28.146 27.4281L15.0729 40.5012H23.5604L34.4854 29.5761L32.3374 27.4281Z" fill="url(#paint4_linear_16164_1141)"/>
</g>
<rect x="8.04797" y="80" width="52.312" height="12.072" rx="6.036" fill="#0D89D3"/>
<rect x="13.4133" y="84.024" width="41.5813" height="4.024" fill="white"/>
<rect x="13.4133" y="64" width="41.5813" height="2.68267" fill="#A3C0D3"/>
<rect x="13.4133" y="104.885" width="41.5813" height="2.68267" fill="#A3C0D3"/>
<rect x="13.4133" y="125.005" width="41.5813" height="2.68267" fill="#A3C0D3"/>
<rect x="13.4133" y="145.125" width="41.5813" height="2.68267" fill="#A3C0D3"/>
<g clip-path="url(#clip2_16164_1141)">
<path d="M478.096 55H105.041V273.356H478.096V55Z" fill="url(#paint5_linear_16164_1141)"/>
<path d="M478.096 78.8598H105.041V79.3581H478.096V78.8598Z" fill="white"/>
<path d="M478.096 103.141H105.041V103.639H478.096V103.141Z" fill="white"/>
<path d="M478.096 127.422H105.041V127.92H478.096V127.422Z" fill="white"/>
<path d="M478.096 151.702H105.041V152.201H478.096V151.702Z" fill="white"/>
<path d="M478.096 175.983H105.041V176.481H478.096V175.983Z" fill="white"/>
<path d="M478.096 200.264H105.041V200.762H478.096V200.264Z" fill="white"/>
<path d="M478.096 224.545H105.041V225.043H478.096V224.545Z" fill="white"/>
<path d="M478.096 248.826H105.041V249.324H478.096V248.826Z" fill="white"/>
<path d="M129.108 290.728V291.156C129.108 291.635 129.337 291.904 129.776 291.904C130.214 291.904 130.423 291.635 130.423 291.156V286.047H131.699V291.256C131.699 292.392 131.011 293 129.776 293C128.54 293 127.842 292.392 127.842 291.256V290.728H129.108Z" fill="#6C6B71"/>
<path d="M138.186 292.88H136.881L136.462 291.535H133.941L133.533 292.88H132.287L134.489 286.047H135.984L138.186 292.88ZM135.197 287.193C135.146 287.505 135.08 287.814 134.997 288.119L134.3 290.399H136.124L135.436 288.119C135.353 287.814 135.286 287.505 135.237 287.193H135.197Z" fill="#6C6B71"/>
<path d="M142.362 292.88L140.249 289.116C140.17 288.976 139.94 288.478 139.94 288.478L139.901 288.508C139.901 288.508 139.92 288.897 139.92 289.076V292.88H138.799V286.047H139.925L142.038 289.814C142.153 290.019 142.256 290.231 142.347 290.449L142.377 290.419C142.377 290.419 142.377 289.961 142.377 289.853V286.047H143.513V292.88H142.362Z" fill="#6C6B71"/>
<path d="M172.627 292.88V286.047H176.643V287.183H173.903V288.907H176.244V290.043H173.903V292.88H172.627Z" fill="#6C6B71"/>
<path d="M177.62 292.88V286.047H181.975V287.183H178.895V288.817H181.536V289.951H178.895V291.744H182.034V292.88H177.62Z" fill="#6C6B71"/>
<path d="M183.071 286.047H186.011C187.087 286.047 187.874 286.734 187.874 287.741C187.887 288.077 187.792 288.409 187.604 288.688C187.416 288.968 187.144 289.18 186.828 289.295V289.335C187.188 289.449 187.501 289.679 187.719 289.988C187.937 290.297 188.047 290.669 188.034 291.047C188.034 292.193 187.107 292.88 186.011 292.88H183.071V286.047ZM184.346 287.183V288.817H185.662C185.779 288.829 185.897 288.816 186.009 288.779C186.12 288.741 186.222 288.68 186.308 288.6C186.394 288.52 186.462 288.422 186.507 288.313C186.552 288.205 186.573 288.088 186.569 287.97C186.569 287.452 186.23 287.183 185.722 287.183H184.346ZM184.346 289.941V291.744H185.801C186.33 291.744 186.728 291.445 186.728 290.887C186.737 290.756 186.716 290.625 186.669 290.503C186.621 290.381 186.547 290.271 186.452 290.18C186.357 290.09 186.243 290.022 186.118 289.98C185.994 289.939 185.862 289.925 185.732 289.941H184.346Z" fill="#6C6B71"/>
<path d="M220.267 292.88V288.528C220.267 288.219 220.317 287.432 220.317 287.432H220.277L219.081 292.88H217.975L216.779 287.432H216.739C216.739 287.432 216.789 288.259 216.789 288.528V292.88H215.703V286.047H217.497L218.344 289.814C218.443 290.262 218.613 291.356 218.613 291.356H218.653C218.653 291.356 218.792 290.21 218.882 289.814L219.719 286.047H221.463V292.88H220.267Z" fill="#6C6B71"/>
<path d="M227.868 292.88H226.563L226.144 291.535H223.623L223.214 292.88H221.969L224.171 286.047H225.666L227.868 292.88ZM224.878 287.193C224.828 287.505 224.761 287.814 224.679 288.119L223.982 290.399H225.805L225.118 288.119C225.034 287.814 224.968 287.505 224.918 287.193H224.878Z" fill="#6C6B71"/>
<path d="M229.752 290.033V292.88H228.488V286.047H231.348C232.734 286.047 233.441 286.874 233.441 288C233.453 288.373 233.35 288.741 233.145 289.053C232.939 289.366 232.643 289.607 232.295 289.744L233.611 292.873H232.225L231.089 290.025L229.752 290.033ZM229.752 287.183V288.907H231.157C231.775 288.907 232.054 288.568 232.054 288C232.054 287.502 231.804 287.183 231.206 287.183H229.752Z" fill="#6C6B71"/>
<path d="M266.013 292.88H264.71L264.292 291.535H261.771L261.362 292.88H260.116L262.319 286.047H263.813L266.013 292.88ZM263.024 287.193C262.973 287.505 262.907 287.814 262.824 288.119L262.127 290.399H263.95L263.263 288.119C263.179 287.814 263.113 287.505 263.064 287.193H263.024Z" fill="#6C6B71"/>
<path d="M267.899 290.23V292.88H266.624V286.047H269.065C270.478 286.047 271.205 286.914 271.205 288.1C271.205 289.385 270.348 290.23 269.065 290.23H267.899ZM267.899 287.183V289.099H268.936C269.554 289.099 269.892 288.72 269.892 288.102C269.892 287.544 269.544 287.185 268.936 287.185L267.899 287.183Z" fill="#6C6B71"/>
<path d="M273.35 290.033V292.88H272.087V286.047H274.947C276.33 286.047 277.038 286.874 277.038 288C277.05 288.373 276.946 288.741 276.742 289.053C276.537 289.365 276.241 289.606 275.894 289.744L277.207 292.873H275.822L274.688 290.025L273.35 290.033ZM273.35 287.183V288.907H274.756C275.373 288.907 275.652 288.568 275.652 288C275.652 287.502 275.403 287.183 274.805 287.183H273.35Z" fill="#6C6B71"/>
<path d="M309.493 292.88V288.528C309.493 288.219 309.542 287.432 309.542 287.432H309.503L308.307 292.88H307.201L305.995 287.432H305.955C305.955 287.432 306.005 288.259 306.005 288.528V292.88H304.918V286.047H306.712L307.559 289.814C307.659 290.262 307.828 291.356 307.828 291.356H307.868C307.868 291.356 308.008 290.21 308.097 289.814L308.935 286.047H310.678V292.88H309.493Z" fill="#6C6B71"/>
<path d="M317.086 292.88H315.781L315.362 291.535H312.841L312.432 292.88H311.187L313.389 286.047H314.884L317.086 292.88ZM314.097 287.193C314.046 287.505 313.98 287.814 313.897 288.119L313.2 290.399H315.023L314.336 288.119C314.252 287.814 314.186 287.505 314.137 287.193H314.097Z" fill="#6C6B71"/>
<path d="M319.717 290.299V292.88H318.442V290.299L316.349 286.047H317.694L319.089 289.036H319.129L320.514 286.047H321.8L319.717 290.299Z" fill="#6C6B71"/>
<path d="M350.486 290.728V291.156C350.486 291.635 350.715 291.904 351.153 291.904C351.592 291.904 351.801 291.635 351.801 291.156V286.047H353.074V291.256C353.074 292.392 352.386 293 351.153 293C349.92 293 349.22 292.392 349.22 291.256V290.728H350.486Z" fill="#6C6B71"/>
<path d="M354.282 286.047H355.548V290.698C355.548 291.485 355.937 291.904 356.612 291.904C357.287 291.904 357.688 291.485 357.688 290.698V286.047H358.964V290.738C358.964 292.233 358.077 293 356.612 293C355.147 293 354.272 292.223 354.272 290.738L354.282 286.047Z" fill="#6C6B71"/>
<path d="M363.737 292.88L361.627 289.116C361.545 288.976 361.318 288.478 361.318 288.478L361.278 288.508C361.278 288.508 361.298 288.897 361.298 289.076V292.88H360.172V286.047H361.298L363.408 289.814C363.523 290.019 363.626 290.231 363.717 290.449L363.747 290.419C363.747 290.419 363.747 289.961 363.747 289.853V286.047H364.883V292.88H363.737Z" fill="#6C6B71"/>
<path d="M395.283 290.728V291.156C395.283 291.635 395.512 291.904 395.95 291.904C396.389 291.904 396.598 291.635 396.598 291.156V286.047H397.874V291.256C397.874 292.392 397.186 293 395.95 293C394.715 293 394.017 292.392 394.017 291.256V290.728H395.283Z" fill="#6C6B71"/>
<path d="M399.08 286.047H400.355V290.698C400.355 291.485 400.744 291.904 401.421 291.904C402.099 291.904 402.498 291.485 402.498 290.698V286.047H403.773V290.738C403.773 292.233 402.886 293 401.421 293C399.957 293 399.08 292.223 399.08 290.738V286.047Z" fill="#6C6B71"/>
<path d="M404.969 286.047H406.245V291.685H409.135V292.88H404.969V286.047Z" fill="#6C6B71"/>
<path d="M442.661 292.88H441.356L440.937 291.535H438.416L438.007 292.88H436.761L438.961 286.047H440.456L442.661 292.88ZM439.671 287.193C439.621 287.505 439.554 287.814 439.472 288.119L438.774 290.399H440.598L439.911 288.119C439.827 287.814 439.761 287.505 439.711 287.193H439.671Z" fill="#6C6B71"/>
<path d="M443.281 286.047H444.554V290.698C444.554 291.485 444.943 291.904 445.621 291.904C446.298 291.904 446.697 291.485 446.697 290.698V286.047H447.978V290.738C447.978 292.233 447.091 293 445.626 293C444.161 293 443.286 292.223 443.286 290.738L443.281 286.047Z" fill="#6C6B71"/>
<path d="M454.42 288.438H453.115C453.115 287.512 452.507 287.023 451.769 287.023C450.703 287.023 450.225 287.85 450.225 289.216V289.714C450.225 291.109 450.723 291.906 451.779 291.906C452.557 291.906 453.115 291.259 453.115 290.264H451.58V289.168H454.42V292.883H453.593L453.374 292.136C453.16 292.414 452.883 292.639 452.567 292.791C452.25 292.944 451.902 293.019 451.55 293.012C449.876 293.012 448.912 291.906 448.912 289.475C448.912 287.043 449.966 285.94 451.809 285.94C453.185 285.927 454.42 286.804 454.42 288.438Z" fill="#6C6B71"/>
<path d="M344.855 234.308V236.957H343.589V230.123H346.031C347.446 230.123 348.171 230.99 348.171 232.176C348.171 233.461 347.317 234.308 346.031 234.308H344.855ZM344.855 231.259V233.182H345.891C346.509 233.182 346.848 232.804 346.848 232.186C346.848 231.628 346.499 231.269 345.891 231.269L344.855 231.259Z" fill="#6C6B71"/>
<path d="M354.449 233.541C354.449 235.95 353.373 237.076 351.612 237.076C349.85 237.076 348.771 235.95 348.771 233.541C348.771 231.132 349.848 230.003 351.612 230.003C353.376 230.003 354.449 231.13 354.449 233.541ZM350.087 233.292V233.79C350.087 235.153 350.585 235.98 351.612 235.98C352.638 235.98 353.136 235.153 353.136 233.79V233.292C353.136 231.927 352.638 231.1 351.612 231.1C350.585 231.1 350.087 231.927 350.087 233.292Z" fill="#6C6B71"/>
<path d="M356.564 236.957H355.299V230.123H356.574L356.564 236.957Z" fill="#6C6B71"/>
<path d="M361.226 236.957L359.116 233.192C359.036 233.053 358.807 232.555 358.807 232.555L358.767 232.584C358.767 232.584 358.787 232.973 358.787 233.152V236.957H357.661V230.123H358.787L360.899 233.89C361.012 234.097 361.115 234.31 361.206 234.528L361.238 234.495C361.238 234.495 361.238 234.039 361.238 233.93V230.123H362.374V236.957H361.226Z" fill="#6C6B71"/>
<path d="M367.793 231.259H366.099V236.957H364.826V231.259H363.132V230.123H367.793V231.259Z" fill="#6C6B71"/>
<path d="M374.482 233.541C374.482 236.319 373.735 237.076 372.512 237.076C371.288 237.076 370.539 236.329 370.539 233.541C370.539 230.753 371.286 230.003 372.512 230.003C373.737 230.003 374.482 230.761 374.482 233.541ZM371.784 233.192V233.89C371.784 235.385 371.904 236.07 372.512 236.07C373.12 236.07 373.239 235.382 373.239 233.89V233.192C373.239 231.698 373.12 231.01 372.512 231.01C371.904 231.01 371.772 231.698 371.772 233.192H371.784Z" fill="#6C6B71"/>
<path d="M378.984 231.777C378.984 233.581 377.014 235.016 376.595 235.841H379.014V236.957H375.1V236.708C375.1 234.568 377.729 233.631 377.729 231.757C377.729 231.438 377.589 231.01 377.103 231.01C376.617 231.01 376.416 231.488 376.416 232.046V232.455H375.19C375.169 232.323 375.159 232.19 375.16 232.056C375.16 230.591 376.087 229.983 377.153 229.983C378.167 230.003 378.984 230.522 378.984 231.777Z" fill="#6C6B71"/>
<path d="M368.752 113.457V116.108H367.477V109.272H369.918C371.333 109.272 372.061 110.139 372.061 111.325C372.061 112.61 371.204 113.457 369.918 113.457H368.752ZM368.752 110.408V112.331H369.789C370.406 112.331 370.745 111.953 370.745 111.335C370.745 110.777 370.397 110.418 369.789 110.418L368.752 110.408Z" fill="#6C6B71"/>
<path d="M378.336 112.682C378.336 115.094 377.26 116.22 375.496 116.22C373.732 116.22 372.656 115.094 372.656 112.682C372.656 110.271 373.732 109.145 375.496 109.145C377.26 109.145 378.336 110.271 378.336 112.682ZM373.972 112.433V112.932C373.972 114.297 374.47 115.124 375.496 115.124C376.523 115.124 377.021 114.297 377.021 112.932V112.433C377.021 111.068 376.523 110.241 375.496 110.241C374.47 110.241 373.984 111.068 373.984 112.433H373.972Z" fill="#6C6B71"/>
<path d="M380.462 116.101H379.186V109.264H380.462V116.101Z" fill="#6C6B71"/>
<path d="M385.113 116.101L383 112.334C382.921 112.194 382.691 111.696 382.691 111.696L382.652 111.726C382.652 111.726 382.671 112.115 382.671 112.294V116.101H381.545V109.264H382.671L384.784 113.031C384.899 113.238 385.002 113.451 385.093 113.669L385.123 113.639C385.123 113.639 385.123 113.181 385.123 113.071V109.264H386.259V116.101H385.113Z" fill="#6C6B71"/>
<path d="M391.673 110.4H389.979V116.101H388.703V110.4H387.009V109.264H391.673V110.4Z" fill="#6C6B71"/>
<path d="M398.357 112.682C398.357 115.463 397.61 116.22 396.384 116.22C395.158 116.22 394.411 115.473 394.411 112.682C394.411 109.892 395.158 109.145 396.384 109.145C397.61 109.145 398.357 109.902 398.357 112.682ZM395.656 112.334V113.031C395.656 114.526 395.776 115.214 396.384 115.214C396.992 115.214 397.111 114.526 397.111 113.031V112.334C397.111 110.839 396.992 110.151 396.384 110.151C395.776 110.151 395.659 110.839 395.659 112.334H395.656Z" fill="#6C6B71"/>
<path d="M402.782 111.018C402.799 111.333 402.724 111.645 402.567 111.918C402.409 112.19 402.176 112.411 401.895 112.553V112.593C402.473 112.812 402.891 113.36 402.891 114.267C402.891 115.483 402.074 116.22 400.918 116.22C399.613 116.22 398.895 115.413 398.895 114.167V113.988H400.141V114.197C400.141 114.845 400.39 115.214 400.888 115.214C401.337 115.214 401.636 114.895 401.636 114.217C401.636 113.36 401.247 113.141 400.819 113.141H400.49V112.144H400.838C401.217 112.144 401.516 111.796 401.516 111.088C401.516 110.45 401.267 110.171 400.888 110.171C400.51 110.171 400.251 110.49 400.251 111.128V111.317H399.005V111.038C398.991 110.789 399.03 110.539 399.12 110.305C399.209 110.072 399.346 109.86 399.523 109.683C399.7 109.506 399.912 109.369 400.146 109.279C400.379 109.19 400.629 109.151 400.878 109.165C402.024 109.145 402.782 109.803 402.782 111.018Z" fill="#6C6B71"/>
<path d="M216.388 129.046V131.697H215.112V124.86H217.554C218.969 124.86 219.696 125.727 219.696 126.913C219.696 128.199 218.839 129.046 217.554 129.046H216.388ZM216.388 125.996V127.92H217.424C218.042 127.92 218.381 127.541 218.381 126.923C218.381 126.365 218.032 126.006 217.424 126.006L216.388 125.996Z" fill="#6C6B71"/>
<path d="M225.997 128.278C225.997 130.69 224.921 131.816 223.157 131.816C221.393 131.816 220.317 130.69 220.317 128.278C220.317 125.867 221.393 124.741 223.157 124.741C224.921 124.741 225.997 125.867 225.997 128.278ZM221.632 128.029V128.528C221.632 129.893 222.13 130.72 223.157 130.72C224.183 130.72 224.682 129.893 224.682 128.528V128.029C224.682 126.664 224.183 125.837 223.157 125.837C222.13 125.837 221.62 126.662 221.62 128.029H221.632Z" fill="#6C6B71"/>
<path d="M228.097 131.697H226.822V124.86H228.097V131.697Z" fill="#6C6B71"/>
<path d="M232.761 131.697L230.648 127.93C230.569 127.79 230.34 127.292 230.34 127.292L230.3 127.322C230.3 127.322 230.32 127.711 230.32 127.89V131.697H229.193V124.86H230.32L232.432 128.627C232.547 128.834 232.65 129.047 232.741 129.265L232.771 129.235C232.771 129.235 232.771 128.777 232.771 128.667V124.86H233.907V131.697H232.761Z" fill="#6C6B71"/>
<path d="M239.328 125.996H237.634V131.697H236.359V125.996H234.665V124.86H239.328V125.996Z" fill="#6C6B71"/>
<path d="M246.005 128.278C246.005 131.059 245.258 131.816 244.032 131.816C242.806 131.816 242.059 131.069 242.059 128.278C242.059 125.488 242.806 124.741 244.032 124.741C245.258 124.741 246.005 125.498 246.005 128.278ZM243.305 127.93V128.627C243.305 130.122 243.424 130.81 244.032 130.81C244.64 130.81 244.76 130.122 244.76 128.627V127.93C244.76 126.435 244.64 125.747 244.032 125.747C243.424 125.747 243.305 126.435 243.305 127.93Z" fill="#6C6B71"/>
<path d="M249.433 130.69H250.838V131.687H246.703V130.69H248.237V126.425H246.693V125.628C247.453 125.513 248.184 125.252 248.845 124.86H249.433V130.69Z" fill="#6C6B71"/>
<path d="M174.089 226.219L135.511 212.639L136.338 210.289L173.494 223.369L228.035 172.515L228.416 172.458L292.1 162.836L328.591 209.273L411.078 191.332L446.313 205.426L445.387 207.741L410.861 193.928L327.597 212.041L291.037 165.517L229.171 174.865L174.089 226.219Z" fill="#FF7667"/>
<path d="M136.873 248.975L134.975 247.361L176.175 198.956L223.144 222.871L263.273 191.499L263.507 191.432L321.175 175.143L352.725 134.499L383.377 168.23L444.868 89.5925L446.832 91.1272L383.521 172.092L352.877 138.368L322.642 177.318L322.246 177.431L264.421 193.764L223.428 225.81L176.795 202.07L136.873 248.975Z" fill="#57A5CA"/>
<path d="M361.056 118.268C362.032 116.78 362.586 115.056 362.662 113.279C362.737 111.501 362.331 109.736 361.485 108.171C360.639 106.605 359.386 105.298 357.858 104.387C356.33 103.475 354.584 102.994 352.805 102.994C351.026 102.994 349.28 103.475 347.752 104.387C346.224 105.298 344.97 106.605 344.125 108.171C343.279 109.736 342.873 111.501 342.948 113.279C343.024 115.056 343.578 116.78 344.554 118.268L344.569 118.288C344.733 118.537 344.907 118.774 345.089 119.003C350.642 126.696 352.812 131.709 352.812 131.709C352.812 131.709 354.977 126.709 360.536 119.003C360.72 118.774 360.894 118.535 361.056 118.288V118.268Z" fill="#79BBDE"/>
<path d="M352.802 117.81C355.536 117.81 357.753 115.593 357.753 112.859C357.753 110.125 355.536 107.909 352.802 107.909C350.068 107.909 347.852 110.125 347.852 112.859C347.852 115.593 350.068 117.81 352.802 117.81Z" fill="white"/>
<path d="M319.343 228.197C318.368 229.685 317.813 231.409 317.738 233.187C317.662 234.964 318.069 236.729 318.915 238.295C319.76 239.86 321.014 241.167 322.542 242.079C324.07 242.99 325.816 243.471 327.595 243.471C329.374 243.471 331.12 242.99 332.648 242.079C334.176 241.167 335.429 239.86 336.275 238.295C337.121 236.729 337.527 234.964 337.452 233.187C337.376 231.409 336.822 229.685 335.846 228.197L335.831 228.177C335.667 227.928 335.493 227.679 335.311 227.462C329.757 219.769 327.587 214.769 327.587 214.769C327.587 214.769 325.422 219.769 319.864 227.462C319.68 227.691 319.505 227.931 319.343 228.177V228.197Z" fill="#FFB4A9"/>
<path d="M331.096 237.103C333.029 235.17 333.029 232.036 331.096 230.102C329.162 228.169 326.028 228.169 324.095 230.102C322.162 232.036 322.162 235.17 324.095 237.103C326.028 239.036 329.162 239.036 331.096 237.103Z" fill="white"/>
<path d="M446.099 265.597H445.601V273.505H446.099V265.597Z" fill="#6C6B71"/>
<path d="M401.825 265.597H401.327V273.505H401.825V265.597Z" fill="#6C6B71"/>
<path d="M357.549 265.597H357.05V273.505H357.549V265.597Z" fill="#6C6B71"/>
<path d="M313.275 265.597H312.776V273.505H313.275V265.597Z" fill="#6C6B71"/>
<path d="M268.998 265.597H268.5V273.505H268.998V265.597Z" fill="#6C6B71"/>
<path d="M224.724 265.597H224.226V273.505H224.724V265.597Z" fill="#6C6B71"/>
<path d="M180.45 265.597H179.952V273.505H180.45V265.597Z" fill="#6C6B71"/>
<path d="M136.173 265.597H135.675V273.505H136.173V265.597Z" fill="#6C6B71"/>
<path d="M174.042 223.299H173.544V224.794H174.042V223.299Z" fill="#79BBDE"/>
<path d="M174.042 220.285H173.544V217.272H174.042V220.285ZM174.042 214.258H173.544V211.246H174.042V214.258ZM174.042 208.231H173.544V205.219H174.042V208.231ZM174.042 202.205H173.544V199.193H174.042V202.205ZM174.042 196.178H173.544V193.166H174.042V196.178ZM174.042 190.151H173.544V187.137H174.042V190.151ZM174.042 184.125H173.544V181.11H174.042V184.125ZM174.042 178.098H173.544V175.084H174.042V178.098ZM174.042 172.072H173.544V169.057H174.042V172.072ZM174.042 166.045H173.544V163.035H174.042V166.045ZM174.042 160.016H173.544V157.004H174.042V160.016ZM174.042 153.989H173.544V150.977H174.042V153.989ZM174.042 147.963H173.544V144.951H174.042V147.963Z" fill="#79BBDE"/>
<path d="M174.042 141.936H173.544V140.192H175.288V140.69H174.042V141.936Z" fill="#79BBDE"/>
<path d="M287.13 140.69H284.188V140.192H287.13V140.69ZM281.246 140.69H278.301V140.192H281.246V140.69ZM275.358 140.69H272.414V140.192H275.358V140.69ZM269.471 140.69H266.529V140.192H269.471V140.69ZM263.584 140.69H260.642V140.192H263.584V140.69ZM257.7 140.69H254.755V140.192H257.7V140.69ZM251.813 140.69H248.87V140.192H251.813V140.69ZM245.925 140.69H242.983V140.192H245.928L245.925 140.69ZM240.038 140.69H237.096V140.192H240.038V140.69ZM234.154 140.69H231.209V140.192H234.154V140.69ZM228.267 140.69H225.324V140.192H228.267V140.69ZM222.38 140.69H219.437V140.192H222.38V140.69ZM216.492 140.69H213.54V140.192H216.483L216.492 140.69ZM210.608 140.69H207.663V140.192H210.608V140.69ZM204.721 140.69H201.779V140.192H204.721V140.69ZM198.834 140.69H195.891V140.192H198.841L198.834 140.69ZM192.947 140.69H190.004V140.192H192.947V140.69ZM187.062 140.69H184.117V140.192H187.062V140.69ZM181.175 140.69H178.233V140.192H181.175V140.69Z" fill="#A4A4A8"/>
<path d="M291.816 141.936H291.318V140.69H290.072V140.192H291.816V141.936Z" fill="#79BBDE"/>
<path d="M291.819 159.72H291.321V156.755H291.819V159.72ZM291.819 153.793H291.321V150.828H291.819V153.793ZM291.819 147.863H291.321V144.901H291.819V147.863Z" fill="#79BBDE"/>
<path d="M291.816 162.682H291.318V164.177H291.816V162.682Z" fill="#79BBDE"/>
<path d="M97.2882 269.808C97.2882 272.588 96.5408 273.346 95.315 273.346C94.0893 273.346 93.3419 272.598 93.3419 269.808C93.3419 267.018 94.0893 266.27 95.315 266.27C96.5408 266.27 97.2882 267.028 97.2882 269.808ZM94.5875 269.459V270.157C94.5875 271.651 94.7071 272.339 95.315 272.339C95.9229 272.339 96.0425 271.651 96.0425 270.157V269.459C96.0425 267.964 95.9229 267.277 95.315 267.277C94.7071 267.277 94.5875 267.964 94.5875 269.459Z" fill="#6C6B71"/>
<path d="M93.9 223.658H95.3051V224.654H91.1695V223.658H92.7091V219.393H91.1645V218.593C91.9249 218.479 92.656 218.218 93.317 217.826H93.905L93.9 223.658Z" fill="#6C6B71"/>
<path d="M97.0491 221.505L98.514 219.423H99.7896L98.235 221.555L99.8693 224.664H98.5439L97.4875 222.492L97.0491 223.03V224.664H95.8532V217.462H97.0491V221.505Z" fill="#6C6B71"/>
<path d="M94.8965 171.02C94.9138 171.335 94.8392 171.647 94.6816 171.92C94.5241 172.192 94.2906 172.413 94.0096 172.555V172.595C94.5875 172.814 95.0061 173.362 95.0061 174.269C95.0061 175.485 94.1889 176.222 93.0329 176.222C91.7275 176.222 91.0099 175.415 91.0099 174.169V173.997H92.2556V174.207C92.2556 174.854 92.5048 175.223 93.003 175.223C93.4515 175.223 93.7504 174.904 93.7504 174.227C93.7504 173.37 93.3618 173.15 92.9333 173.15H92.6044V172.154H92.9532C93.3319 172.154 93.6309 171.805 93.6309 171.098C93.6309 170.46 93.3817 170.183 93.003 170.183C92.6244 170.183 92.3653 170.5 92.3653 171.137V171.327H91.1196V171.048C91.1063 170.798 91.1456 170.549 91.2351 170.316C91.3246 170.082 91.4622 169.871 91.6389 169.694C91.8156 169.518 92.0275 169.38 92.2609 169.291C92.4942 169.202 92.7437 169.163 92.9931 169.177C94.1391 169.149 94.8965 169.804 94.8965 171.02Z" fill="#6C6B71"/>
<path d="M97.0491 172.944L98.514 170.861H99.7896L98.235 172.993L99.8693 176.103H98.5439L97.4875 173.93L97.0491 174.468V176.103H95.8532V168.9H97.0491V172.944Z" fill="#6C6B71"/>
<path d="M94.7969 121.823H92.5546L92.455 123.435C92.7299 123.21 93.0761 123.09 93.4316 123.096C94.3584 123.096 95.0958 123.804 95.0958 125.309C95.0958 126.814 94.3285 127.661 93.1027 127.661C91.877 127.661 91.0897 126.814 91.0897 125.418H92.3354C92.3354 126.166 92.6144 126.664 93.1027 126.664C93.5911 126.664 93.8701 126.206 93.8701 125.309C93.8701 124.512 93.5711 124.063 93.1725 124.063C92.7739 124.063 92.5845 124.312 92.4251 124.641L91.2691 124.482L91.4983 120.697H94.8068L94.7969 121.823Z" fill="#6C6B71"/>
<path d="M97.0491 124.382L98.514 122.302H99.7896L98.235 124.432L99.8693 127.541H98.5439L97.4875 125.369L97.0491 125.907V127.541H95.8532V120.339H97.0491V124.382Z" fill="#6C6B71"/>
<path d="M95.0859 72.9528C94.189 74.3081 93.0728 76.3784 93.0728 78.4711C93.0728 78.6605 93.0728 78.7402 93.0728 78.9694H91.7474C91.7474 76.777 92.744 74.6369 93.7804 73.2517H90.9901V72.1356H95.0759L95.0859 72.9528Z" fill="#6C6B71"/>
<path d="M97.0491 75.8228L98.514 73.7401H99.7896L98.235 75.8727L99.8693 78.9794H98.5439L97.4875 76.8069L97.0491 77.3451V78.9794H95.8532V71.7769H97.0491V75.8228Z" fill="#6C6B71"/>
</g>
</g>
<defs>
<linearGradient id="paint0_linear_16164_1141" x1="27.3846" y1="44.0602" x2="49.2102" y2="22.2345" gradientUnits="userSpaceOnUse">
<stop stop-color="#075799"/>
<stop offset="0.36" stop-color="#0D83D3"/>
<stop offset="1" stop-color="#13D6D6"/>
</linearGradient>
<linearGradient id="paint1_linear_16164_1141" x1="27.1777" y1="43.8559" x2="49.0034" y2="22.0278" gradientUnits="userSpaceOnUse">
<stop stop-color="#075799"/>
<stop offset="0.36" stop-color="#0D83D3"/>
<stop offset="1" stop-color="#13D6D6"/>
</linearGradient>
<linearGradient id="paint2_linear_16164_1141" x1="28.5644" y1="42.4693" x2="49.13" y2="21.9037" gradientUnits="userSpaceOnUse">
<stop stop-color="#075799"/>
<stop offset="0.36" stop-color="#0D83D3"/>
<stop offset="1" stop-color="#13D6D6"/>
</linearGradient>
<linearGradient id="paint3_linear_16164_1141" x1="41.2797" y1="29.501" x2="41.2797" y2="38.6185" gradientUnits="userSpaceOnUse">
<stop stop-color="#075799"/>
<stop offset="1" stop-color="white"/>
</linearGradient>
<linearGradient id="paint4_linear_16164_1141" x1="25.6039" y1="41.6323" x2="24.5043" y2="32.8408" gradientUnits="userSpaceOnUse">
<stop stop-color="#075799"/>
<stop offset="1" stop-color="white"/>
</linearGradient>
<linearGradient id="paint5_linear_16164_1141" x1="291.569" y1="55" x2="291.569" y2="273.356" gradientUnits="userSpaceOnUse">
<stop stop-color="#F8FBFD"/>
<stop offset="1" stop-color="#E4EDF6"/>
</linearGradient>
<clipPath id="clip0_16164_1141">
<rect y="0.261353" width="503" height="323.261" rx="21.4613" fill="white"/>
</clipPath>
<clipPath id="clip1_16164_1141">
<rect width="39.6035" height="24.144" fill="white" transform="translate(15.0729 16.3574)"/>
</clipPath>
<clipPath id="clip2_16164_1141">
<rect width="387.096" height="238" fill="white" transform="translate(91 55)"/>
</clipPath>
</defs>
</svg>
