<svg width="248" height="148" viewBox="0 0 248 148" fill="none" xmlns="http://www.w3.org/2000/svg">
<rect y="13" width="27" height="109" rx="4" fill="#13D6D6"/>
<path d="M0.444 143V142.184L3.864 138.884C4.168 138.596 4.392 138.344 4.536 138.128C4.688 137.904 4.788 137.7 4.836 137.516C4.892 137.324 4.92 137.14 4.92 136.964C4.92 136.532 4.768 136.192 4.464 135.944C4.16 135.696 3.716 135.572 3.132 135.572C2.684 135.572 2.28 135.648 1.92 135.8C1.56 135.944 1.248 136.172 0.984 136.484L0.168 135.776C0.488 135.368 0.916 135.056 1.452 134.84C1.996 134.616 2.592 134.504 3.24 134.504C3.824 134.504 4.332 134.6 4.764 134.792C5.196 134.976 5.528 135.244 5.76 135.596C6 135.948 6.12 136.364 6.12 136.844C6.12 137.116 6.084 137.384 6.012 137.648C5.94 137.912 5.804 138.192 5.604 138.488C5.404 138.784 5.116 139.116 4.74 139.484L1.692 142.424L1.404 141.956H6.48V143H0.444ZM10.8869 143.096C10.2309 143.096 9.64291 142.928 9.12291 142.592C8.61091 142.256 8.20291 141.768 7.89891 141.128C7.60291 140.488 7.45491 139.712 7.45491 138.8C7.45491 137.888 7.60291 137.112 7.89891 136.472C8.20291 135.832 8.61091 135.344 9.12291 135.008C9.64291 134.672 10.2309 134.504 10.8869 134.504C11.5349 134.504 12.1189 134.672 12.6389 135.008C13.1589 135.344 13.5669 135.832 13.8629 136.472C14.1589 137.112 14.3069 137.888 14.3069 138.8C14.3069 139.712 14.1589 140.488 13.8629 141.128C13.5669 141.768 13.1589 142.256 12.6389 142.592C12.1189 142.928 11.5349 143.096 10.8869 143.096ZM10.8869 142.028C11.3269 142.028 11.7109 141.908 12.0389 141.668C12.3749 141.428 12.6349 141.068 12.8189 140.588C13.0109 140.108 13.1069 139.512 13.1069 138.8C13.1069 138.088 13.0109 137.492 12.8189 137.012C12.6349 136.532 12.3749 136.172 12.0389 135.932C11.7109 135.692 11.3269 135.572 10.8869 135.572C10.4469 135.572 10.0589 135.692 9.72291 135.932C9.38691 136.172 9.12291 136.532 8.93091 137.012C8.74691 137.492 8.65491 138.088 8.65491 138.8C8.65491 139.512 8.74691 140.108 8.93091 140.588C9.12291 141.068 9.38691 141.428 9.72291 141.668C10.0589 141.908 10.4469 142.028 10.8869 142.028ZM16.8748 143V135.08L17.3908 135.644H14.9788V134.6H18.0628V143H16.8748ZM21.3522 143L24.9162 135.104L25.2282 135.644H20.2362L20.8362 135.056V137.144H19.6842V134.6H26.0202V135.416L22.6242 143H21.3522Z" fill="#9291AA"/>
<rect x="43" y="68" width="28" height="54" rx="4" fill="#A9D4F1"/>
<path d="M43.444 143V142.184L46.864 138.884C47.168 138.596 47.392 138.344 47.536 138.128C47.688 137.904 47.788 137.7 47.836 137.516C47.892 137.324 47.92 137.14 47.92 136.964C47.92 136.532 47.768 136.192 47.464 135.944C47.16 135.696 46.716 135.572 46.132 135.572C45.684 135.572 45.28 135.648 44.92 135.8C44.56 135.944 44.248 136.172 43.984 136.484L43.168 135.776C43.488 135.368 43.916 135.056 44.452 134.84C44.996 134.616 45.592 134.504 46.24 134.504C46.824 134.504 47.332 134.6 47.764 134.792C48.196 134.976 48.528 135.244 48.76 135.596C49 135.948 49.12 136.364 49.12 136.844C49.12 137.116 49.084 137.384 49.012 137.648C48.94 137.912 48.804 138.192 48.604 138.488C48.404 138.784 48.116 139.116 47.74 139.484L44.692 142.424L44.404 141.956H49.48V143H43.444ZM53.8869 143.096C53.2309 143.096 52.6429 142.928 52.1229 142.592C51.6109 142.256 51.2029 141.768 50.8989 141.128C50.6029 140.488 50.4549 139.712 50.4549 138.8C50.4549 137.888 50.6029 137.112 50.8989 136.472C51.2029 135.832 51.6109 135.344 52.1229 135.008C52.6429 134.672 53.2309 134.504 53.8869 134.504C54.5349 134.504 55.1189 134.672 55.6389 135.008C56.1589 135.344 56.5669 135.832 56.8629 136.472C57.1589 137.112 57.3069 137.888 57.3069 138.8C57.3069 139.712 57.1589 140.488 56.8629 141.128C56.5669 141.768 56.1589 142.256 55.6389 142.592C55.1189 142.928 54.5349 143.096 53.8869 143.096ZM53.8869 142.028C54.3269 142.028 54.7109 141.908 55.0389 141.668C55.3749 141.428 55.6349 141.068 55.8189 140.588C56.0109 140.108 56.1069 139.512 56.1069 138.8C56.1069 138.088 56.0109 137.492 55.8189 137.012C55.6349 136.532 55.3749 136.172 55.0389 135.932C54.7109 135.692 54.3269 135.572 53.8869 135.572C53.4469 135.572 53.0589 135.692 52.7229 135.932C52.3869 136.172 52.1229 136.532 51.9309 137.012C51.7469 137.492 51.6549 138.088 51.6549 138.8C51.6549 139.512 51.7469 140.108 51.9309 140.588C52.1229 141.068 52.3869 141.428 52.7229 141.668C53.0589 141.908 53.4469 142.028 53.8869 142.028ZM59.8748 143V135.08L60.3908 135.644H57.9788V134.6H61.0628V143H59.8748ZM66.1762 143.096C65.4962 143.096 64.9082 142.996 64.4122 142.796C63.9162 142.596 63.5322 142.312 63.2602 141.944C62.9882 141.568 62.8522 141.128 62.8522 140.624C62.8522 140.128 62.9802 139.708 63.2362 139.364C63.5002 139.012 63.8802 138.748 64.3762 138.572C64.8722 138.388 65.4722 138.296 66.1762 138.296C66.8802 138.296 67.4802 138.388 67.9762 138.572C68.4802 138.748 68.8642 139.012 69.1282 139.364C69.3922 139.716 69.5242 140.136 69.5242 140.624C69.5242 141.128 69.3882 141.568 69.1162 141.944C68.8442 142.312 68.4562 142.596 67.9522 142.796C67.4482 142.996 66.8562 143.096 66.1762 143.096ZM66.1762 142.124C66.8482 142.124 67.3722 141.988 67.7482 141.716C68.1322 141.436 68.3242 141.06 68.3242 140.588C68.3242 140.124 68.1322 139.76 67.7482 139.496C67.3722 139.224 66.8482 139.088 66.1762 139.088C65.5122 139.088 64.9922 139.224 64.6162 139.496C64.2402 139.76 64.0522 140.124 64.0522 140.588C64.0522 141.06 64.2402 141.436 64.6162 141.716C64.9922 141.988 65.5122 142.124 66.1762 142.124ZM66.1762 138.944C65.5362 138.944 64.9922 138.86 64.5442 138.692C64.0962 138.516 63.7522 138.268 63.5122 137.948C63.2722 137.62 63.1522 137.232 63.1522 136.784C63.1522 136.312 63.2762 135.908 63.5242 135.572C63.7802 135.228 64.1362 134.964 64.5922 134.78C65.0482 134.596 65.5762 134.504 66.1762 134.504C66.7842 134.504 67.3162 134.596 67.7722 134.78C68.2282 134.964 68.5842 135.228 68.8402 135.572C69.0962 135.908 69.2242 136.312 69.2242 136.784C69.2242 137.232 69.1042 137.62 68.8642 137.948C68.6242 138.268 68.2762 138.516 67.8202 138.692C67.3642 138.86 66.8162 138.944 66.1762 138.944ZM66.1762 138.176C66.7602 138.176 67.2162 138.056 67.5442 137.816C67.8802 137.576 68.0482 137.248 68.0482 136.832C68.0482 136.408 67.8762 136.076 67.5322 135.836C67.1882 135.596 66.7362 135.476 66.1762 135.476C65.6162 135.476 65.1682 135.596 64.8322 135.836C64.5042 136.076 64.3402 136.408 64.3402 136.832C64.3402 137.248 64.5002 137.576 64.8202 137.816C65.1482 138.056 65.6002 138.176 66.1762 138.176Z" fill="#9291AA"/>
<rect x="87" y="47" width="27" height="75" rx="4" fill="#13D6D6"/>
<path d="M87.444 143V142.184L90.864 138.884C91.168 138.596 91.392 138.344 91.536 138.128C91.688 137.904 91.788 137.7 91.836 137.516C91.892 137.324 91.92 137.14 91.92 136.964C91.92 136.532 91.768 136.192 91.464 135.944C91.16 135.696 90.716 135.572 90.132 135.572C89.684 135.572 89.28 135.648 88.92 135.8C88.56 135.944 88.248 136.172 87.984 136.484L87.168 135.776C87.488 135.368 87.916 135.056 88.452 134.84C88.996 134.616 89.592 134.504 90.24 134.504C90.824 134.504 91.332 134.6 91.764 134.792C92.196 134.976 92.528 135.244 92.76 135.596C93 135.948 93.12 136.364 93.12 136.844C93.12 137.116 93.084 137.384 93.012 137.648C92.94 137.912 92.804 138.192 92.604 138.488C92.404 138.784 92.116 139.116 91.74 139.484L88.692 142.424L88.404 141.956H93.48V143H87.444ZM97.8869 143.096C97.2309 143.096 96.6429 142.928 96.1229 142.592C95.6109 142.256 95.2029 141.768 94.8989 141.128C94.6029 140.488 94.4549 139.712 94.4549 138.8C94.4549 137.888 94.6029 137.112 94.8989 136.472C95.2029 135.832 95.6109 135.344 96.1229 135.008C96.6429 134.672 97.2309 134.504 97.8869 134.504C98.5349 134.504 99.1189 134.672 99.6389 135.008C100.159 135.344 100.567 135.832 100.863 136.472C101.159 137.112 101.307 137.888 101.307 138.8C101.307 139.712 101.159 140.488 100.863 141.128C100.567 141.768 100.159 142.256 99.6389 142.592C99.1189 142.928 98.5349 143.096 97.8869 143.096ZM97.8869 142.028C98.3269 142.028 98.7109 141.908 99.0389 141.668C99.3749 141.428 99.6349 141.068 99.8189 140.588C100.011 140.108 100.107 139.512 100.107 138.8C100.107 138.088 100.011 137.492 99.8189 137.012C99.6349 136.532 99.3749 136.172 99.0389 135.932C98.7109 135.692 98.3269 135.572 97.8869 135.572C97.4469 135.572 97.0589 135.692 96.7229 135.932C96.3869 136.172 96.1229 136.532 95.9309 137.012C95.7469 137.492 95.6549 138.088 95.6549 138.8C95.6549 139.512 95.7469 140.108 95.9309 140.588C96.1229 141.068 96.3869 141.428 96.7229 141.668C97.0589 141.908 97.4469 142.028 97.8869 142.028ZM103.875 143V135.08L104.391 135.644H101.979V134.6H105.063V143H103.875ZM109.624 134.504C110.384 134.504 111.024 134.668 111.544 134.996C112.072 135.324 112.472 135.8 112.744 136.424C113.016 137.04 113.152 137.796 113.152 138.692C113.152 139.644 112.984 140.448 112.648 141.104C112.312 141.76 111.848 142.256 111.256 142.592C110.664 142.928 109.972 143.096 109.18 143.096C108.788 143.096 108.408 143.056 108.04 142.976C107.68 142.896 107.364 142.772 107.092 142.604L107.548 141.668C107.772 141.812 108.02 141.916 108.292 141.98C108.572 142.036 108.864 142.064 109.168 142.064C110.016 142.064 110.692 141.8 111.196 141.272C111.7 140.736 111.952 139.944 111.952 138.896C111.952 138.728 111.944 138.528 111.928 138.296C111.912 138.064 111.876 137.836 111.82 137.612L112.216 138.02C112.104 138.388 111.916 138.7 111.652 138.956C111.396 139.204 111.084 139.392 110.716 139.52C110.356 139.64 109.96 139.7 109.528 139.7C108.976 139.7 108.484 139.596 108.052 139.388C107.62 139.18 107.28 138.888 107.032 138.512C106.784 138.128 106.66 137.676 106.66 137.156C106.66 136.612 106.788 136.144 107.044 135.752C107.308 135.352 107.664 135.044 108.112 134.828C108.568 134.612 109.072 134.504 109.624 134.504ZM109.672 135.476C109.312 135.476 108.992 135.544 108.712 135.68C108.432 135.816 108.212 136.004 108.052 136.244C107.9 136.484 107.824 136.772 107.824 137.108C107.824 137.604 107.996 138 108.34 138.296C108.684 138.584 109.148 138.728 109.732 138.728C110.116 138.728 110.452 138.656 110.74 138.512C111.036 138.368 111.264 138.172 111.424 137.924C111.592 137.676 111.676 137.4 111.676 137.096C111.676 136.8 111.6 136.532 111.448 136.292C111.296 136.052 111.072 135.856 110.776 135.704C110.48 135.552 110.112 135.476 109.672 135.476Z" fill="#9291AA"/>
<rect x="130" y="99" width="30" height="23" rx="4" fill="#A9D4F1"/>
<path d="M130.444 143V142.184L133.864 138.884C134.168 138.596 134.392 138.344 134.536 138.128C134.688 137.904 134.788 137.7 134.836 137.516C134.892 137.324 134.92 137.14 134.92 136.964C134.92 136.532 134.768 136.192 134.464 135.944C134.16 135.696 133.716 135.572 133.132 135.572C132.684 135.572 132.28 135.648 131.92 135.8C131.56 135.944 131.248 136.172 130.984 136.484L130.168 135.776C130.488 135.368 130.916 135.056 131.452 134.84C131.996 134.616 132.592 134.504 133.24 134.504C133.824 134.504 134.332 134.6 134.764 134.792C135.196 134.976 135.528 135.244 135.76 135.596C136 135.948 136.12 136.364 136.12 136.844C136.12 137.116 136.084 137.384 136.012 137.648C135.94 137.912 135.804 138.192 135.604 138.488C135.404 138.784 135.116 139.116 134.74 139.484L131.692 142.424L131.404 141.956H136.48V143H130.444ZM140.887 143.096C140.231 143.096 139.643 142.928 139.123 142.592C138.611 142.256 138.203 141.768 137.899 141.128C137.603 140.488 137.455 139.712 137.455 138.8C137.455 137.888 137.603 137.112 137.899 136.472C138.203 135.832 138.611 135.344 139.123 135.008C139.643 134.672 140.231 134.504 140.887 134.504C141.535 134.504 142.119 134.672 142.639 135.008C143.159 135.344 143.567 135.832 143.863 136.472C144.159 137.112 144.307 137.888 144.307 138.8C144.307 139.712 144.159 140.488 143.863 141.128C143.567 141.768 143.159 142.256 142.639 142.592C142.119 142.928 141.535 143.096 140.887 143.096ZM140.887 142.028C141.327 142.028 141.711 141.908 142.039 141.668C142.375 141.428 142.635 141.068 142.819 140.588C143.011 140.108 143.107 139.512 143.107 138.8C143.107 138.088 143.011 137.492 142.819 137.012C142.635 136.532 142.375 136.172 142.039 135.932C141.711 135.692 141.327 135.572 140.887 135.572C140.447 135.572 140.059 135.692 139.723 135.932C139.387 136.172 139.123 136.532 138.931 137.012C138.747 137.492 138.655 138.088 138.655 138.8C138.655 139.512 138.747 140.108 138.931 140.588C139.123 141.068 139.387 141.428 139.723 141.668C140.059 141.908 140.447 142.028 140.887 142.028ZM145.327 143V142.184L148.747 138.884C149.051 138.596 149.275 138.344 149.419 138.128C149.571 137.904 149.671 137.7 149.719 137.516C149.775 137.324 149.803 137.14 149.803 136.964C149.803 136.532 149.651 136.192 149.347 135.944C149.043 135.696 148.599 135.572 148.015 135.572C147.567 135.572 147.163 135.648 146.803 135.8C146.443 135.944 146.131 136.172 145.867 136.484L145.051 135.776C145.371 135.368 145.799 135.056 146.335 134.84C146.879 134.616 147.475 134.504 148.123 134.504C148.707 134.504 149.215 134.6 149.647 134.792C150.079 134.976 150.411 135.244 150.643 135.596C150.883 135.948 151.003 136.364 151.003 136.844C151.003 137.116 150.967 137.384 150.895 137.648C150.823 137.912 150.687 138.192 150.487 138.488C150.287 138.784 149.999 139.116 149.623 139.484L146.575 142.424L146.287 141.956H151.363V143H145.327ZM155.77 143.096C155.114 143.096 154.526 142.928 154.006 142.592C153.494 142.256 153.086 141.768 152.782 141.128C152.486 140.488 152.338 139.712 152.338 138.8C152.338 137.888 152.486 137.112 152.782 136.472C153.086 135.832 153.494 135.344 154.006 135.008C154.526 134.672 155.114 134.504 155.77 134.504C156.418 134.504 157.002 134.672 157.522 135.008C158.042 135.344 158.45 135.832 158.746 136.472C159.042 137.112 159.19 137.888 159.19 138.8C159.19 139.712 159.042 140.488 158.746 141.128C158.45 141.768 158.042 142.256 157.522 142.592C157.002 142.928 156.418 143.096 155.77 143.096ZM155.77 142.028C156.21 142.028 156.594 141.908 156.922 141.668C157.258 141.428 157.518 141.068 157.702 140.588C157.894 140.108 157.99 139.512 157.99 138.8C157.99 138.088 157.894 137.492 157.702 137.012C157.518 136.532 157.258 136.172 156.922 135.932C156.594 135.692 156.21 135.572 155.77 135.572C155.33 135.572 154.942 135.692 154.606 135.932C154.27 136.172 154.006 136.532 153.814 137.012C153.63 137.492 153.538 138.088 153.538 138.8C153.538 139.512 153.63 140.108 153.814 140.588C154.006 141.068 154.27 141.428 154.606 141.668C154.942 141.908 155.33 142.028 155.77 142.028Z" fill="#9291AA"/>
<rect x="176" y="35" width="27" height="87" rx="4" fill="#13D6D6"/>
<path d="M176.444 143V142.184L179.864 138.884C180.168 138.596 180.392 138.344 180.536 138.128C180.688 137.904 180.788 137.7 180.836 137.516C180.892 137.324 180.92 137.14 180.92 136.964C180.92 136.532 180.768 136.192 180.464 135.944C180.16 135.696 179.716 135.572 179.132 135.572C178.684 135.572 178.28 135.648 177.92 135.8C177.56 135.944 177.248 136.172 176.984 136.484L176.168 135.776C176.488 135.368 176.916 135.056 177.452 134.84C177.996 134.616 178.592 134.504 179.24 134.504C179.824 134.504 180.332 134.6 180.764 134.792C181.196 134.976 181.528 135.244 181.76 135.596C182 135.948 182.12 136.364 182.12 136.844C182.12 137.116 182.084 137.384 182.012 137.648C181.94 137.912 181.804 138.192 181.604 138.488C181.404 138.784 181.116 139.116 180.74 139.484L177.692 142.424L177.404 141.956H182.48V143H176.444ZM186.887 143.096C186.231 143.096 185.643 142.928 185.123 142.592C184.611 142.256 184.203 141.768 183.899 141.128C183.603 140.488 183.455 139.712 183.455 138.8C183.455 137.888 183.603 137.112 183.899 136.472C184.203 135.832 184.611 135.344 185.123 135.008C185.643 134.672 186.231 134.504 186.887 134.504C187.535 134.504 188.119 134.672 188.639 135.008C189.159 135.344 189.567 135.832 189.863 136.472C190.159 137.112 190.307 137.888 190.307 138.8C190.307 139.712 190.159 140.488 189.863 141.128C189.567 141.768 189.159 142.256 188.639 142.592C188.119 142.928 187.535 143.096 186.887 143.096ZM186.887 142.028C187.327 142.028 187.711 141.908 188.039 141.668C188.375 141.428 188.635 141.068 188.819 140.588C189.011 140.108 189.107 139.512 189.107 138.8C189.107 138.088 189.011 137.492 188.819 137.012C188.635 136.532 188.375 136.172 188.039 135.932C187.711 135.692 187.327 135.572 186.887 135.572C186.447 135.572 186.059 135.692 185.723 135.932C185.387 136.172 185.123 136.532 184.931 137.012C184.747 137.492 184.655 138.088 184.655 138.8C184.655 139.512 184.747 140.108 184.931 140.588C185.123 141.068 185.387 141.428 185.723 141.668C186.059 141.908 186.447 142.028 186.887 142.028ZM191.327 143V142.184L194.747 138.884C195.051 138.596 195.275 138.344 195.419 138.128C195.571 137.904 195.671 137.7 195.719 137.516C195.775 137.324 195.803 137.14 195.803 136.964C195.803 136.532 195.651 136.192 195.347 135.944C195.043 135.696 194.599 135.572 194.015 135.572C193.567 135.572 193.163 135.648 192.803 135.8C192.443 135.944 192.131 136.172 191.867 136.484L191.051 135.776C191.371 135.368 191.799 135.056 192.335 134.84C192.879 134.616 193.475 134.504 194.123 134.504C194.707 134.504 195.215 134.6 195.647 134.792C196.079 134.976 196.411 135.244 196.643 135.596C196.883 135.948 197.003 136.364 197.003 136.844C197.003 137.116 196.967 137.384 196.895 137.648C196.823 137.912 196.687 138.192 196.487 138.488C196.287 138.784 195.999 139.116 195.623 139.484L192.575 142.424L192.287 141.956H197.363V143H191.327ZM199.765 143V135.08L200.281 135.644H197.869V134.6H200.953V143H199.765Z" fill="#9291AA"/>
<rect x="219" width="29" height="122" rx="4" fill="#A9D4F1"/>
<path d="M219.444 143V142.184L222.864 138.884C223.168 138.596 223.392 138.344 223.536 138.128C223.688 137.904 223.788 137.7 223.836 137.516C223.892 137.324 223.92 137.14 223.92 136.964C223.92 136.532 223.768 136.192 223.464 135.944C223.16 135.696 222.716 135.572 222.132 135.572C221.684 135.572 221.28 135.648 220.92 135.8C220.56 135.944 220.248 136.172 219.984 136.484L219.168 135.776C219.488 135.368 219.916 135.056 220.452 134.84C220.996 134.616 221.592 134.504 222.24 134.504C222.824 134.504 223.332 134.6 223.764 134.792C224.196 134.976 224.528 135.244 224.76 135.596C225 135.948 225.12 136.364 225.12 136.844C225.12 137.116 225.084 137.384 225.012 137.648C224.94 137.912 224.804 138.192 224.604 138.488C224.404 138.784 224.116 139.116 223.74 139.484L220.692 142.424L220.404 141.956H225.48V143H219.444ZM229.887 143.096C229.231 143.096 228.643 142.928 228.123 142.592C227.611 142.256 227.203 141.768 226.899 141.128C226.603 140.488 226.455 139.712 226.455 138.8C226.455 137.888 226.603 137.112 226.899 136.472C227.203 135.832 227.611 135.344 228.123 135.008C228.643 134.672 229.231 134.504 229.887 134.504C230.535 134.504 231.119 134.672 231.639 135.008C232.159 135.344 232.567 135.832 232.863 136.472C233.159 137.112 233.307 137.888 233.307 138.8C233.307 139.712 233.159 140.488 232.863 141.128C232.567 141.768 232.159 142.256 231.639 142.592C231.119 142.928 230.535 143.096 229.887 143.096ZM229.887 142.028C230.327 142.028 230.711 141.908 231.039 141.668C231.375 141.428 231.635 141.068 231.819 140.588C232.011 140.108 232.107 139.512 232.107 138.8C232.107 138.088 232.011 137.492 231.819 137.012C231.635 136.532 231.375 136.172 231.039 135.932C230.711 135.692 230.327 135.572 229.887 135.572C229.447 135.572 229.059 135.692 228.723 135.932C228.387 136.172 228.123 136.532 227.931 137.012C227.747 137.492 227.655 138.088 227.655 138.8C227.655 139.512 227.747 140.108 227.931 140.588C228.123 141.068 228.387 141.428 228.723 141.668C229.059 141.908 229.447 142.028 229.887 142.028ZM234.327 143V142.184L237.747 138.884C238.051 138.596 238.275 138.344 238.419 138.128C238.571 137.904 238.671 137.7 238.719 137.516C238.775 137.324 238.803 137.14 238.803 136.964C238.803 136.532 238.651 136.192 238.347 135.944C238.043 135.696 237.599 135.572 237.015 135.572C236.567 135.572 236.163 135.648 235.803 135.8C235.443 135.944 235.131 136.172 234.867 136.484L234.051 135.776C234.371 135.368 234.799 135.056 235.335 134.84C235.879 134.616 236.475 134.504 237.123 134.504C237.707 134.504 238.215 134.6 238.647 134.792C239.079 134.976 239.411 135.244 239.643 135.596C239.883 135.948 240.003 136.364 240.003 136.844C240.003 137.116 239.967 137.384 239.895 137.648C239.823 137.912 239.687 138.192 239.487 138.488C239.287 138.784 238.999 139.116 238.623 139.484L235.575 142.424L235.287 141.956H240.363V143H234.327ZM241.217 143V142.184L244.637 138.884C244.941 138.596 245.165 138.344 245.309 138.128C245.461 137.904 245.561 137.7 245.609 137.516C245.665 137.324 245.693 137.14 245.693 136.964C245.693 136.532 245.541 136.192 245.237 135.944C244.933 135.696 244.489 135.572 243.905 135.572C243.457 135.572 243.053 135.648 242.693 135.8C242.333 135.944 242.021 136.172 241.757 136.484L240.941 135.776C241.261 135.368 241.689 135.056 242.225 134.84C242.769 134.616 243.365 134.504 244.013 134.504C244.597 134.504 245.105 134.6 245.537 134.792C245.969 134.976 246.301 135.244 246.533 135.596C246.773 135.948 246.893 136.364 246.893 136.844C246.893 137.116 246.857 137.384 246.785 137.648C246.713 137.912 246.577 138.192 246.377 138.488C246.177 138.784 245.889 139.116 245.513 139.484L242.465 142.424L242.177 141.956H247.253V143H241.217Z" fill="#9291AA"/>
</svg>
